<?xml version="1.0" standalone="no"?>
<!DOCTYPE svg PUBLIC "-//W3C//DTD SVG 20010904//EN"
 "http://www.w3.org/TR/2001/REC-SVG-20010904/DTD/svg10.dtd">
<svg version="1.0" xmlns="http://www.w3.org/2000/svg"
 width="711.000000pt" height="568.000000pt" viewBox="0 0 711.000000 568.000000"
 preserveAspectRatio="xMidYMid meet">

<g transform="translate(0.000000,568.000000) scale(0.100000,-0.100000)"
fill="#000000" stroke="none">
<path d="M3310 4964 c-19 -2 -96 -14 -170 -25 -622 -96 -1185 -475 -1522
-1025 -424 -689 -424 -1579 0 -2268 214 -350 531 -642 888 -819 225 -112 367
-158 644 -209 170 -32 502 -32 685 0 473 82 869 285 1201 616 417 418 645 964
644 1550 -1 578 -225 1118 -635 1532 -183 184 -355 310 -571 418 -312 155
-596 225 -944 231 -102 2 -201 1 -220 -1z m478 -99 c346 -49 688 -191 971
-403 95 -71 274 -243 356 -342 162 -195 301 -450 378 -690 79 -246 102 -394
101 -650 0 -243 -22 -395 -89 -615 -106 -348 -287 -641 -561 -905 -164 -158
-317 -266 -524 -370 -436 -219 -972 -274 -1458 -149 -276 72 -576 221 -787
393 -80 65 -242 225 -309 306 -174 208 -311 463 -391 725 -69 226 -90 374 -89
625 1 175 5 226 27 350 63 354 229 712 452 980 83 99 262 271 356 342 154 115
342 219 523 287 177 68 339 104 606 135 69 8 327 -3 438 -19z"/>
<path d="M3321 4789 c-185 -14 -415 -71 -606 -149 -91 -37 -103 -46 -89 -60 7
-7 43 3 110 30 134 55 311 105 447 127 155 24 461 24 612 0 177 -29 393 -95
515 -157 35 -18 39 -18 44 -3 9 22 5 24 -94 66 -186 78 -410 131 -622 147
-146 11 -164 11 -317 -1z"/>
<path d="M3415 4510 l0 -80 47 0 c53 0 57 6 56 85 -1 63 -11 75 -62 75 l-41 0
0 -80z m80 40 c0 -18 -6 -26 -23 -28 -13 -2 -25 3 -28 12 -10 26 4 48 28 44
17 -2 23 -10 23 -28z m4 -59 c13 -24 -8 -55 -35 -49 -20 3 -30 29 -20 54 8 20
43 17 55 -5z"/>
<path d="M3636 4572 c-11 -13 -16 -37 -16 -80 0 -57 2 -62 24 -68 42 -10 70
-1 77 26 12 44 10 120 -3 124 -48 15 -66 15 -82 -2z m72 -60 c4 -64 -8 -83
-46 -73 -25 7 -27 11 -24 57 4 69 8 76 39 72 26 -3 28 -6 31 -56z"/>
<path d="M3116 4551 c-4 -5 -2 -11 4 -13 5 -1 11 -14 12 -27 2 -19 -3 -26 -26
-32 -37 -10 -40 -7 -40 35 0 27 -3 32 -18 28 -19 -5 -24 -17 -9 -26 9 -6 27
-101 22 -123 -1 -7 7 -13 19 -13 21 0 27 14 10 25 -5 3 -10 17 -10 30 0 16 7
25 26 29 32 8 47 -4 47 -38 0 -19 5 -26 18 -26 11 0 19 5 19 10 0 6 -4 10 -9
10 -11 0 -35 115 -27 129 4 7 -1 11 -13 11 -11 0 -22 -4 -25 -9z"/>
<path d="M2483 4529 c-31 -20 -45 -49 -23 -49 25 0 80 35 80 52 0 23 -17 23
-57 -3z"/>
<path d="M3870 4538 c0 -7 -16 -39 -35 -71 -19 -32 -35 -60 -35 -63 0 -2 9 -4
19 -4 12 0 18 7 17 18 -1 13 7 17 29 17 27 0 30 -3 28 -27 -1 -21 3 -28 16
-28 16 0 17 6 9 58 -5 31 -7 69 -4 85 5 24 2 27 -19 27 -14 0 -25 -6 -25 -12z
m30 -52 c0 -14 -5 -28 -11 -32 -17 -10 -32 12 -24 35 9 29 35 27 35 -3z"/>
<path d="M4447 4543 c-15 -14 -5 -30 32 -51 46 -26 47 -26 55 -7 4 10 -8 23
-34 40 -44 28 -44 28 -53 18z"/>
<path d="M2869 4487 c-27 -14 -37 -51 -18 -73 7 -9 26 -13 48 -12 32 3 36 1
36 -22 0 -19 -6 -26 -24 -28 -13 -2 -28 2 -33 10 -7 9 -8 8 -6 -7 7 -41 88
-25 88 18 0 37 -16 51 -57 52 -31 0 -39 4 -41 22 -2 15 4 23 19 28 14 5 25 3
27 -4 4 -13 22 -15 22 -1 0 19 -35 29 -61 17z"/>
<path d="M4054 4491 c6 -10 -22 -99 -37 -119 -8 -10 -7 -16 4 -22 11 -7 16 -2
22 21 12 46 42 35 41 -14 -1 -27 3 -37 14 -37 11 0 13 8 9 36 -4 26 -2 37 9
41 19 7 35 48 28 67 -3 8 -19 19 -36 25 -37 13 -61 14 -54 2z m67 -27 c18 -22
-1 -50 -32 -46 -30 3 -31 5 -20 36 12 29 32 34 52 10z"/>
<path d="M2256 4374 c-381 -294 -638 -703 -740 -1174 -14 -63 -28 -150 -32
-194 -7 -73 -6 -78 12 -74 13 2 20 13 22 33 1 17 12 85 23 153 48 291 159 557
339 815 79 112 276 317 379 394 106 80 120 93 114 109 -3 8 -8 14 -12 14 -3 0
-50 -34 -105 -76z"/>
<path d="M4611 4436 c-8 -10 0 -20 37 -46 92 -66 236 -196 319 -290 258 -292
431 -663 480 -1031 15 -110 20 -129 35 -129 21 0 22 17 7 127 -68 493 -340
970 -732 1284 -119 96 -131 103 -146 85z"/>
<path d="M2700 4420 c-13 -9 -13 -12 1 -20 20 -12 62 -107 54 -120 -3 -6 1
-10 9 -10 19 0 32 20 19 29 -16 10 -56 109 -48 120 8 14 -15 14 -35 1z"/>
<path d="M4246 4355 c-16 -36 -33 -65 -38 -65 -5 0 -6 -5 -2 -11 10 -17 71
-40 88 -33 20 8 68 108 61 127 -5 10 -67 48 -78 47 -1 0 -15 -30 -31 -65z m84
20 c10 -12 8 -24 -10 -61 -25 -51 -39 -60 -69 -45 -20 11 -20 12 6 66 28 56
49 68 73 40z"/>
<path d="M2537 4336 c-14 -11 -15 -15 -4 -19 16 -6 67 -92 67 -113 0 -19 9
-18 53 9 34 21 37 25 23 36 -13 11 -16 11 -16 -2 0 -16 -26 -30 -41 -21 -15 9
-57 98 -52 112 6 16 -7 15 -30 -2z"/>
<path d="M4443 4272 c-12 -26 -31 -57 -43 -69 l-20 -22 21 -11 c16 -9 20 -8
18 2 -4 20 54 118 70 118 11 0 11 3 1 15 -18 22 -23 19 -47 -33z"/>
<path d="M2388 4239 c-26 -15 -22 -51 12 -98 38 -52 51 -57 84 -36 28 19 33
50 12 78 -13 17 -46 14 -46 -4 0 -4 6 -6 13 -3 8 3 20 -2 27 -11 11 -13 10
-19 -5 -35 -27 -30 -41 -25 -75 26 -31 44 -31 46 -14 65 13 14 25 18 42 14 15
-4 21 -2 17 5 -8 13 -45 13 -67 -1z"/>
<path d="M4587 4217 c-4 -12 -24 -43 -47 -67 -32 -34 -37 -46 -28 -57 9 -12
14 -9 24 14 15 33 64 93 64 78 -1 -5 -7 -38 -14 -73 -10 -43 -10 -64 -3 -69
10 -6 87 73 87 90 0 4 7 7 15 7 18 0 19 12 3 28 -17 17 -28 15 -28 -6 0 -10
-13 -33 -30 -52 -25 -31 -29 -32 -30 -14 0 11 6 42 14 67 12 42 12 47 -4 62
-16 15 -18 14 -23 -8z"/>
<path d="M2248 4129 c-15 -8 -11 -15 27 -51 25 -22 45 -44 45 -49 0 -5 -25 2
-56 16 -66 29 -77 30 -94 10 -10 -12 -10 -15 3 -15 16 0 94 -87 90 -101 -4
-12 11 -11 24 2 8 8 -2 22 -33 51 -24 22 -44 44 -44 49 0 5 25 -2 56 -16 56
-25 94 -32 94 -17 0 4 -20 30 -43 57 -24 28 -46 55 -48 62 -3 8 -9 9 -21 2z"/>
<path d="M3229 4085 c-186 -39 -332 -99 -477 -197 -304 -205 -496 -497 -572
-868 -19 -91 -21 -127 -17 -275 3 -93 9 -182 12 -197 l7 -27 -98 -3 c-94 -3
-99 -4 -102 -25 -3 -22 0 -22 103 -25 l107 -3 37 -110 c57 -168 118 -277 233
-421 102 -127 275 -267 426 -343 424 -214 950 -182 1340 81 255 172 435 412
531 706 l29 87 106 3 c104 3 107 3 104 25 -3 21 -8 22 -102 25 l-98 3 6 27 c4
15 10 104 13 197 4 149 2 183 -17 275 -76 372 -268 663 -572 868 -287 193
-660 267 -999 197z m483 -30 c534 -93 961 -519 1053 -1050 18 -102 21 -329 5
-420 -5 -33 -10 -61 -10 -62 0 -2 -571 -3 -1270 -3 -698 0 -1270 1 -1270 3 0
1 -5 29 -10 62 -15 90 -13 309 4 416 85 524 515 959 1041 1053 108 19 350 20
457 1z m1038 -1589 c0 -15 -76 -219 -97 -260 -184 -366 -541 -633 -937 -701
-50 -8 -148 -15 -226 -15 -275 0 -493 65 -719 214 -185 123 -344 303 -446 506
-22 43 -95 241 -95 257 0 2 567 3 1260 3 693 0 1260 -2 1260 -4z"/>
<path d="M3077 3574 c-4 -4 -7 -184 -7 -401 l0 -393 420 0 420 0 0 30 0 30
-220 0 -220 0 -2 368 -3 367 -190 3 c-105 1 -194 0 -198 -4z"/>
<path d="M2679 2135 c2 -60 0 -85 -9 -85 -6 0 -8 -4 -5 -10 3 -5 31 -10 61
-10 52 0 54 1 54 28 -1 24 -2 25 -14 10 -7 -10 -25 -18 -40 -18 -25 0 -27 3
-24 32 2 28 8 34 33 39 l30 6 -30 4 c-25 3 -30 9 -33 37 -3 29 -1 32 24 32 15
0 33 -8 40 -17 12 -16 13 -15 14 10 0 26 -2 27 -52 27 l-53 0 4 -85z"/>
<path d="M2892 2208 c-16 -16 -15 -63 1 -76 6 -6 26 -12 42 -14 26 -3 30 -7
30 -33 0 -25 -4 -31 -27 -33 -18 -2 -31 4 -42 20 -15 21 -16 21 -16 2 0 -27
19 -44 48 -44 42 0 62 18 62 55 0 37 -8 45 -54 55 -25 4 -31 11 -31 30 0 32
42 41 62 14 17 -23 28 -11 13 15 -12 24 -68 29 -88 9z"/>
<path d="M3070 2193 c1 -25 2 -26 14 -10 7 9 21 17 30 17 13 0 16 -12 16 -75
0 -61 -3 -75 -16 -75 -8 0 -12 -4 -9 -10 3 -5 19 -10 36 -10 16 0 29 5 29 10
0 6 -4 10 -10 10 -6 0 -10 32 -10 75 0 67 2 75 19 75 11 0 22 -8 24 -17 3 -11
5 -7 6 10 1 27 1 27 -64 27 -64 0 -65 0 -65 -27z"/>
<path d="M3552 2208 c-7 -7 -12 -21 -11 -32 0 -20 1 -20 16 2 20 28 59 29 68
2 7 -22 -15 -58 -59 -99 -41 -39 -34 -51 29 -51 53 0 55 1 55 28 -1 24 -2 25
-14 10 -12 -17 -66 -26 -66 -12 0 4 18 26 40 50 42 45 47 62 30 95 -12 22 -68
27 -88 7z"/>
<path d="M3772 2208 c-16 -16 -16 -150 0 -166 18 -18 73 -14 91 6 19 21 24
121 7 153 -12 22 -78 27 -98 7z m86 -62 c5 -79 -3 -98 -41 -94 -32 3 -32 4
-35 62 -4 78 1 88 40 84 32 -3 33 -5 36 -52z"/>
<path d="M3806 2131 c-4 -5 -2 -12 3 -15 5 -4 12 -2 15 3 4 5 2 12 -3 15 -5 4
-12 2 -15 -3z"/>
<path d="M3984 2206 c-3 -8 -4 -27 -2 -43 3 -24 8 -29 43 -33 38 -5 40 -7 40
-40 0 -29 -4 -36 -24 -38 -17 -3 -30 4 -43 20 l-18 23 0 -22 c0 -25 26 -43 62
-43 34 0 48 18 48 62 0 41 -19 58 -64 58 -21 0 -26 5 -26 25 0 21 5 25 31 25
19 0 37 -7 45 -17 12 -16 13 -15 14 10 0 26 -2 27 -50 27 -34 0 -52 -5 -56
-14z"/>
<path d="M4212 2208 c-7 -7 -12 -26 -12 -43 0 -40 16 -55 58 -55 30 0 33 -2
30 -27 -2 -22 -9 -29 -31 -31 -22 -3 -30 1 -34 17 -7 26 -23 28 -23 3 0 -27
20 -42 55 -42 46 0 55 15 55 95 0 80 -9 95 -55 95 -17 0 -36 -5 -43 -12z m76
-46 c3 -32 2 -33 -30 -30 -22 2 -34 9 -36 21 -6 33 6 49 35 45 24 -2 29 -8 31
-36z"/>
<path d="M3280 2051 c0 -6 5 -13 10 -16 6 -3 10 1 10 9 0 9 -4 16 -10 16 -5 0
-10 -4 -10 -9z"/>
<path d="M4727 4022 c-41 -42 -46 -70 -19 -95 24 -22 55 -21 76 1 15 18 15 20
-5 38 -20 18 -20 18 -14 -7 9 -36 -18 -46 -46 -18 l-21 21 43 44 c34 35 46 41
61 33 17 -9 22 -21 19 -46 -1 -7 3 -13 9 -13 17 0 11 46 -8 63 -29 26 -55 20
-95 -21z"/>
<path d="M2052 3927 c-35 -36 -39 -47 -18 -47 18 0 107 -76 99 -84 -4 -3 -2
-6 3 -6 19 0 67 59 61 74 -9 22 -26 20 -20 -2 2 -10 -3 -24 -12 -32 -14 -11
-19 -10 -38 8 -17 17 -19 24 -9 34 20 20 13 32 -8 13 -19 -17 -21 -17 -40 0
-19 17 -19 20 -4 36 9 10 23 15 32 11 15 -5 15 -4 3 11 -7 9 -14 17 -15 17 -1
0 -16 -15 -34 -33z"/>
<path d="M4974 3785 c-25 -25 -25 -27 -9 -52 16 -23 16 -27 1 -41 -23 -23 -52
-4 -49 32 2 31 -13 35 -22 5 -10 -30 34 -74 64 -64 34 11 44 40 24 71 -16 25
-16 27 2 40 25 19 32 18 45 -7 9 -15 8 -24 -1 -35 -7 -9 -8 -14 -1 -14 6 0 15
8 21 17 11 21 -1 48 -29 63 -17 9 -25 6 -46 -15z"/>
<path d="M1860 3661 c-9 -17 -8 -21 5 -21 18 0 91 -35 98 -47 3 -5 -29 -8 -71
-8 -41 0 -76 -4 -78 -10 -2 -5 20 -21 48 -34 28 -13 59 -32 69 -42 18 -18 19
-18 29 1 9 16 8 20 -7 20 -10 0 -36 11 -58 25 l-40 24 72 1 c39 0 74 4 78 10
3 5 -18 23 -47 39 -29 16 -61 37 -70 46 -15 16 -17 15 -28 -4z"/>
<path d="M5060 3614 c-64 -36 -73 -50 -54 -85 10 -20 22 -29 39 -29 14 0 25 5
25 11 0 6 -7 9 -15 5 -17 -6 -45 19 -45 40 0 8 25 26 55 41 48 24 57 26 66 13
5 -8 7 -28 4 -45 -5 -27 -4 -28 11 -13 18 17 13 48 -12 73 -20 19 -21 19 -74
-11z"/>
<path d="M5160 3428 c-30 -15 -63 -26 -72 -24 -10 2 -18 -2 -18 -9 0 -18 20
-30 29 -18 3 6 15 13 27 17 16 5 23 0 32 -19 18 -38 15 -43 -23 -51 -30 -5
-33 -9 -25 -25 10 -18 11 -18 29 0 10 10 42 24 70 32 38 9 51 17 51 31 0 10
-4 18 -10 18 -5 0 -10 -4 -10 -8 0 -5 -11 -14 -25 -20 -23 -11 -27 -9 -35 14
-6 14 -10 29 -10 34 0 13 39 32 50 25 6 -3 10 1 10 9 0 24 -12 23 -70 -6z"/>
<path d="M1742 3423 c-5 -16 -13 -36 -17 -46 -6 -13 -4 -18 6 -15 15 3 107
-29 127 -45 15 -12 16 -11 36 37 20 48 20 46 -6 46 -17 0 -19 -3 -9 -9 10 -7
11 -13 2 -30 -22 -40 -66 -20 -56 25 l7 29 -20 -24 c-14 -17 -25 -22 -40 -16
-12 3 -22 10 -22 15 0 20 13 40 26 40 8 0 14 5 14 10 0 23 -38 9 -48 -17z"/>
<path d="M1681 3242 c-5 -9 -12 -31 -15 -49 -6 -27 -4 -32 11 -31 29 2 123
-23 123 -33 0 -24 18 -5 28 30 17 54 15 61 -10 60 -13 0 -17 -3 -10 -6 30 -12
7 -65 -26 -56 -17 4 -22 13 -22 37 l-1 31 -15 -27 c-11 -22 -18 -26 -36 -19
-30 11 -33 26 -9 50 15 15 17 21 5 25 -7 3 -18 -2 -23 -12z"/>
<path d="M5201 3207 c-46 -16 -57 -36 -39 -73 12 -26 19 -29 56 -27 82 4 120
41 92 92 -12 24 -55 27 -109 8z m100 -29 c8 -32 5 -36 -62 -53 -46 -12 -50
-12 -60 6 -18 34 -7 52 41 65 61 16 72 14 81 -18z"/>
<path d="M1642 3031 c-8 -4 -16 -26 -19 -47 l-5 -39 52 -2 c28 -1 65 -9 81
-17 28 -14 29 -13 29 8 0 19 -4 22 -30 18 -25 -4 -30 -1 -30 17 0 21 39 39 58
27 5 -3 12 3 15 14 3 11 4 20 3 20 -2 0 -17 -5 -34 -11 -25 -9 -36 -8 -54 5
-25 18 -46 20 -66 7z m61 -23 c8 -26 -5 -48 -29 -48 -26 0 -40 20 -30 45 7 18
53 20 59 3z"/>
<path d="M5246 3010 c-46 -9 -58 -25 -50 -65 9 -41 20 -46 84 -39 67 8 80 17
80 58 0 54 -23 64 -114 46z m93 -32 c13 -34 -8 -50 -70 -52 -53 -1 -54 -1 -54
29 0 32 19 42 83 44 25 1 35 -4 41 -21z"/>
<path d="M1470 2790 c0 -43 3 -50 20 -50 17 0 20 7 20 50 0 43 -3 50 -20 50
-17 0 -20 -7 -20 -50z"/>
<path d="M5470 2790 c0 -43 3 -50 20 -50 17 0 20 7 20 50 0 43 -3 50 -20 50
-17 0 -20 -7 -20 -50z"/>
<path d="M1616 2814 c-20 -19 -21 -58 -2 -73 8 -7 39 -15 68 -18 43 -4 58 -2
71 12 35 35 11 95 -39 95 -19 0 -24 -5 -24 -27 0 -25 1 -26 14 -8 19 27 48 13
44 -22 -3 -25 -8 -28 -42 -31 -58 -5 -86 5 -86 30 0 12 7 30 17 40 20 22 1 24
-21 2z"/>
<path d="M5353 2799 c-7 -7 -36 -10 -77 -7 l-66 4 0 -43 c0 -38 3 -43 23 -43
16 0 18 3 9 9 -8 4 -12 19 -10 32 3 22 8 24 62 27 40 2 62 -1 67 -10 6 -9 10
-8 15 5 8 23 -8 41 -23 26z"/>
<path d="M1480 2616 c0 -57 20 -184 46 -296 97 -414 319 -783 635 -1054 128
-110 184 -150 198 -141 19 11 12 21 -46 63 -238 168 -463 439 -604 727 -103
212 -148 372 -195 703 -7 45 -34 43 -34 -2z"/>
<path d="M5466 2618 c-45 -310 -71 -413 -148 -598 -130 -314 -358 -610 -620
-807 -56 -42 -85 -70 -81 -79 8 -20 15 -18 69 23 340 256 572 571 714 968 45
127 100 397 100 491 0 45 -27 47 -34 2z"/>
<path d="M2040 1892 c0 -4 -21 -19 -47 -32 -27 -14 -50 -26 -52 -27 -1 -1 0
-7 4 -13 5 -8 13 -6 26 6 13 12 23 14 30 7 11 -11 2 -43 -12 -43 -5 0 -9 -8
-9 -17 1 -14 5 -12 21 9 11 15 26 25 34 22 7 -3 23 4 35 16 20 20 20 22 3 50
-16 28 -33 39 -33 22z m28 -45 c4 -20 -25 -34 -40 -19 -15 15 -1 44 19 40 10
-2 19 -11 21 -21z"/>
<path d="M4906 1873 c-10 -10 -7 -23 5 -23 6 0 31 -14 55 -31 25 -17 46 -29
48 -27 24 35 34 57 29 62 -11 11 -23 6 -18 -6 3 -7 1 -19 -4 -27 -7 -11 -15
-10 -45 9 -20 12 -43 28 -50 36 -8 7 -16 10 -20 7z"/>
<path d="M4831 1756 c-9 -11 -6 -20 15 -43 14 -15 33 -38 41 -50 8 -13 19 -20
25 -17 5 3 1 12 -9 19 -17 13 -17 14 1 34 13 15 23 18 30 11 12 -12 26 -13 26
-1 0 5 -21 17 -47 27 -27 10 -53 21 -59 26 -7 5 -16 2 -23 -6z m58 -25 c7 -5
10 -14 7 -20 -11 -17 -24 -13 -36 9 -12 22 3 27 29 11z"/>
<path d="M2110 1724 c-25 -13 -53 -23 -62 -23 -20 -1 -24 -16 -8 -26 6 -3 10
-1 10 5 0 6 10 10 22 8 25 -3 37 -36 18 -48 -7 -4 -9 -13 -5 -20 6 -9 11 -8
19 7 6 10 24 36 39 56 41 52 27 70 -33 41z m28 -21 c-4 -22 -38 -30 -38 -10 0
14 13 24 33 26 5 1 7 -7 5 -16z"/>
<path d="M4730 1635 c-13 -14 -18 -25 -12 -25 7 0 32 -18 56 -40 23 -22 46
-37 50 -33 4 4 -3 15 -16 24 -22 17 -22 18 -4 38 18 20 18 22 1 41 -24 27 -47
25 -75 -5z m54 9 c19 -7 21 -25 4 -42 -17 -17 -53 15 -37 35 13 15 12 15 33 7z"/>
<path d="M2231 1578 c-36 -42 -66 -46 -65 -11 0 12 -3 20 -8 17 -26 -17 8 -73
35 -57 35 20 89 75 81 82 -5 4 -24 -10 -43 -31z"/>
<path d="M4632 1528 l-21 -23 43 -46 43 -45 29 23 c23 18 26 25 16 35 -9 9
-12 9 -12 -4 0 -27 -25 -41 -41 -22 -10 12 -10 20 -1 35 13 21 3 26 -16 7 -9
-9 -16 -9 -28 4 -15 15 -14 18 5 37 12 12 17 21 13 21 -5 0 -18 -10 -30 -22z"/>
<path d="M2325 1520 c-3 -10 -21 -32 -40 -48 l-33 -30 22 -21 c12 -12 29 -21
37 -21 16 0 79 71 79 88 0 4 -13 18 -29 30 -29 21 -30 21 -36 2z m43 -33 c4
-20 -25 -34 -40 -19 -15 15 -1 44 19 40 10 -2 19 -11 21 -21z m-39 -36 c13
-23 -8 -45 -33 -35 -19 7 -21 25 -4 42 17 17 26 15 37 -7z"/>
<path d="M4525 1440 c-3 -5 -2 -10 3 -10 11 0 55 -60 49 -66 -3 -3 -24 4 -47
16 -64 33 -80 19 -36 -30 20 -22 36 -45 36 -50 0 -6 7 -10 15 -10 21 0 19 4
-15 42 -42 46 -37 52 20 23 27 -14 52 -25 55 -25 14 0 2 29 -25 60 -16 19 -29
41 -30 48 0 14 -16 16 -25 2z"/>
<path d="M2450 1423 c0 -10 -16 -36 -35 -57 -19 -21 -32 -42 -29 -47 9 -16 22
-10 28 14 3 12 19 36 35 54 26 27 28 33 16 43 -12 10 -15 9 -15 -7z"/>
<path d="M2540 1354 c0 -16 -38 -76 -52 -82 -13 -6 -9 -19 8 -26 8 -3 13 -2
10 3 -3 4 1 17 9 27 13 16 16 17 25 4 5 -8 7 -22 4 -30 -3 -8 -6 -17 -7 -20
-1 -3 3 -7 8 -10 6 -3 11 7 13 23 2 15 9 27 16 27 7 0 18 11 24 25 10 22 8 28
-16 50 -31 29 -42 31 -42 9z m47 -34 c5 -28 -12 -43 -36 -31 -18 10 -19 15
-10 32 12 23 42 22 46 -1z"/>
<path d="M4312 1293 c9 -20 53 -108 55 -112 1 -2 10 -1 19 3 16 6 16 8 -2 21
-11 7 -29 32 -39 54 -10 23 -22 41 -27 41 -5 0 -8 -3 -6 -7z"/>
<path d="M2663 1221 c-24 -26 -40 -51 -36 -54 11 -12 23 -8 23 8 0 17 18 19
39 6 8 -5 12 -18 8 -30 -3 -12 -2 -23 3 -26 4 -3 11 17 15 43 4 26 11 55 17
66 7 13 6 21 -3 27 -19 12 -19 12 -66 -40z m47 -6 c0 -16 -6 -25 -15 -25 -18
0 -20 21 -3 38 17 17 18 16 18 -13z"/>
<path d="M4456 1235 c4 -8 8 -15 10 -15 2 0 4 7 4 15 0 8 -4 15 -10 15 -5 0
-7 -7 -4 -15z"/>
<path d="M4178 1224 c-27 -14 -27 -15 -9 -33 11 -11 25 -35 32 -55 7 -20 17
-36 22 -36 5 0 6 7 3 15 -3 8 -9 22 -12 30 -9 22 22 19 46 -5 10 -10 22 -15
25 -10 3 5 -4 14 -15 20 -11 6 -20 20 -20 31 0 27 -18 59 -33 59 -7 -1 -24 -7
-39 -16z m52 -10 c11 -12 10 -18 -4 -32 -16 -16 -18 -16 -31 2 -11 14 -12 23
-4 33 15 17 24 16 39 -3z"/>
<path d="M2860 1189 c0 -28 -33 -99 -47 -99 -7 0 -18 10 -23 23 -10 22 -10 22
-7 -3 1 -19 9 -26 27 -28 22 -3 29 4 47 48 27 63 27 64 14 68 -6 2 -11 -2 -11
-9z"/>
<path d="M4043 1172 c-17 -11 -12 -142 5 -142 8 0 10 8 6 24 -4 19 -1 26 15
31 24 7 44 -2 36 -16 -4 -5 1 -9 9 -9 22 0 20 7 -12 49 -16 20 -33 44 -38 53
-5 10 -14 14 -21 10z m33 -71 c-13 -20 -26 -11 -26 16 0 25 1 26 16 11 9 -9
13 -21 10 -27z"/>
<path d="M3925 1135 c-5 -2 -22 -6 -37 -9 -17 -4 -28 -13 -28 -23 0 -15 1 -15
13 1 11 16 15 16 25 3 7 -8 14 -36 15 -61 2 -36 6 -46 20 -46 21 0 21 1 2 36
-20 38 -20 84 0 84 8 0 15 5 15 10 0 10 -6 11 -25 5z"/>
<path d="M3081 1098 c-11 -30 -4 -46 22 -50 14 -2 22 -10 22 -23 0 -26 -35
-32 -52 -9 -14 19 -18 7 -4 -14 4 -8 21 -12 37 -10 24 3 30 9 40 48 13 54 3
80 -32 80 -16 0 -27 -7 -33 -22z m55 -3 c10 -25 -3 -44 -25 -38 -20 5 -28 32
-14 46 11 12 33 7 39 -8z"/>
<path d="M2950 1090 c8 -5 22 -10 30 -10 13 0 13 1 0 10 -8 5 -22 10 -30 10
-13 0 -13 -1 0 -10z"/>
<path d="M3733 1093 c-9 -3 -10 -10 -3 -23 5 -10 11 -39 12 -64 1 -30 6 -46
14 -46 10 0 12 9 8 30 -6 26 -4 30 15 30 22 0 38 37 27 65 -5 14 -47 19 -73 8z
m65 -29 c3 -22 -21 -39 -39 -28 -11 6 -12 38 -2 48 13 13 38 1 41 -20z"/>
<path d="M2447 1083 c-13 -12 -7 -20 33 -47 46 -31 46 -30 54 -11 4 10 -8 23
-34 40 -44 28 -44 28 -53 18z"/>
<path d="M4488 1070 c-44 -24 -52 -34 -35 -48 16 -14 96 36 90 56 -6 16 -11
15 -55 -8z"/>
<path d="M3420 1065 c-17 -20 -9 -49 15 -53 29 -6 45 -21 38 -38 -6 -17 -49
-19 -56 -1 -3 7 -6 6 -6 -5 -1 -22 33 -32 59 -18 34 18 19 70 -21 70 -23 0
-31 26 -13 41 11 9 18 8 34 -6 21 -19 28 -7 8 13 -16 16 -43 15 -58 -3z"/>
<path d="M3585 1070 c3 -5 -1 -33 -10 -62 -18 -62 -18 -58 -1 -58 8 0 13 8 12
18 -1 12 6 17 24 17 18 0 25 -5 24 -17 -1 -11 5 -18 16 -18 17 0 17 2 0 38
-10 21 -22 50 -25 65 -5 18 -14 27 -27 27 -10 0 -16 -4 -13 -10z m35 -52 c0
-10 -7 -18 -15 -18 -17 0 -18 4 -8 38 4 18 8 20 14 10 5 -7 9 -21 9 -30z"/>
<path d="M2613 985 c-7 -20 -12 -16 82 -57 368 -160 798 -204 1195 -123 191
39 480 142 480 171 0 23 -18 25 -57 5 -230 -118 -600 -191 -898 -178 -271 12
-552 79 -747 178 -45 23 -47 23 -55 4z"/>
<path d="M3210 969 c0 -5 5 -7 10 -4 6 3 10 8 10 11 0 2 -4 4 -10 4 -5 0 -10
-5 -10 -11z"/>
</g>
</svg>
