<?xml version="1.0" standalone="no"?>
<!DOCTYPE svg PUBLIC "-//W3C//DTD SVG 20010904//EN"
 "http://www.w3.org/TR/2001/REC-SVG-20010904/DTD/svg10.dtd">
<svg version="1.0" xmlns="http://www.w3.org/2000/svg"
 width="600.000000pt" height="962.000000pt" viewBox="0 0 600.000000 962.000000"
 preserveAspectRatio="xMidYMid meet">

<g transform="translate(0.000000,962.000000) scale(0.100000,-0.100000)"
fill="#000000" stroke="none">
<path d="M3430 7557 c-161 -42 -338 -163 -416 -284 -18 -29 -34 -57 -34 -62 0
-5 -18 -32 -41 -61 -51 -64 -63 -94 -82 -200 -9 -47 -18 -96 -21 -110 -2 -14
-36 -108 -75 -209 -159 -412 -176 -548 -110 -871 6 -30 14 -57 19 -60 4 -3 18
-29 30 -58 21 -49 25 -53 49 -48 14 4 45 9 69 11 37 5 42 3 42 -15 0 -11 7
-20 15 -20 13 0 14 4 5 20 -10 18 -7 23 11 22 3 0 6 15 7 34 4 61 6 73 14 68
4 -3 8 0 8 5 0 6 -7 11 -15 11 -10 0 -15 11 -15 35 0 41 15 46 24 9 9 -34 17
-24 46 51 13 33 25 62 26 64 1 1 18 -8 36 -22 43 -31 69 -44 41 -19 -19 16
-22 33 -28 128 -5 76 -15 136 -35 199 -16 50 -31 107 -35 128 -7 35 -9 37 -25
22 -19 -17 -50 -11 -50 10 0 17 17 28 30 20 8 -5 7 -12 -2 -23 -11 -15 -11
-15 3 -4 10 7 15 21 12 31 -3 11 0 29 7 41 10 19 9 21 -11 18 -17 -2 -25 3
-27 17 -4 17 -2 18 12 6 14 -12 16 -9 17 25 1 22 3 30 6 19 12 -48 21 -31 20
36 -1 60 6 94 35 181 20 58 49 122 64 142 27 34 32 36 74 31 72 -9 154 -28
168 -38 14 -11 62 -16 62 -7 0 3 -5 11 -12 18 -9 9 -8 15 8 27 14 12 34 14 81
9 61 -5 125 7 148 28 6 5 -3 4 -18 -1 -16 -6 -49 -11 -75 -11 l-47 1 32 14
c37 16 136 83 174 117 31 28 109 70 109 58 0 -5 -9 -15 -20 -23 -11 -8 -17
-16 -14 -20 3 -3 27 17 54 44 26 27 56 49 67 49 11 0 32 9 47 21 l26 20 0 -25
c0 -18 -5 -26 -17 -26 -16 -1 -15 -2 2 -12 11 -6 22 -12 23 -14 6 -4 52 -205
52 -224 0 -3 -5 2 -11 10 -25 35 0 -84 31 -146 l32 -66 -12 -116 c-6 -65 -14
-128 -16 -142 -3 -14 -7 -50 -9 -80 -5 -57 -3 -53 21 42 3 15 10 25 15 22 9
-5 13 9 10 33 -3 24 17 22 23 -3 5 -19 0 -33 -20 -57 -24 -29 -26 -36 -20 -94
7 -68 0 -77 -34 -43 -21 21 -40 19 -40 -3 0 -7 -23 -59 -52 -117 -28 -58 -50
-111 -49 -119 1 -8 -2 -10 -10 -5 -8 4 -10 3 -5 -4 9 -14 -34 -153 -45 -146
-4 2 -10 0 -14 -6 -3 -5 -1 -10 4 -10 35 0 -8 -53 -72 -87 -26 -15 -46 -28
-44 -29 5 -5 136 66 142 77 14 21 23 5 39 -68 34 -161 44 -220 39 -245 -4 -20
0 -28 16 -33 23 -7 28 -21 9 -28 -9 -3 -7 -7 6 -12 24 -10 52 7 48 29 -3 15 0
16 17 6 16 -8 21 -8 21 1 0 8 12 10 34 6 85 -14 187 87 256 251 18 42 20 43
14 12 -4 -19 -20 -58 -36 -88 -16 -29 -24 -51 -18 -47 30 18 84 167 101 276
12 77 7 232 -10 354 -35 242 -43 323 -51 520 -13 312 -38 410 -147 564 -111
158 -204 240 -281 248 -20 2 -53 5 -72 7 -19 2 -64 11 -100 20 -87 21 -158 19
-260 -7z m594 -134 c8 -20 0 -16 -41 23 l-38 36 37 -24 c21 -12 40 -29 42 -35z
m-404 -251 c0 -8 -53 -42 -67 -42 -10 0 49 49 60 50 4 0 7 -4 7 -8z m-35 -76
c-9 -14 -30 -31 -46 -38 -16 -7 -29 -19 -29 -27 0 -27 -66 -63 -137 -74 -23
-4 -48 -10 -57 -13 -9 -3 -16 -1 -16 5 0 6 6 11 13 11 6 0 43 16 81 35 37 19
76 35 85 35 12 0 13 2 3 9 -20 12 24 58 73 75 22 7 41 12 43 11 2 -2 -4 -15
-13 -29z m-614 -93 c-8 -15 -10 -15 -11 -2 0 17 10 32 18 25 2 -3 -1 -13 -7
-23z m1124 -460 c-9 -39 -20 -47 -23 -17 -2 29 4 44 20 44 6 0 8 -11 3 -27z
m152 -55 c-3 -8 -6 -5 -6 6 -1 11 2 17 5 13 3 -3 4 -12 1 -19z m-166 -162
c-14 -15 -19 -26 -12 -31 16 -9 14 -50 -3 -64 -17 -14 -23 2 -24 66 -1 33 4
46 21 58 32 23 46 1 18 -29z"/>
<path d="M3610 6930 c-9 -6 -10 -10 -3 -10 6 0 15 5 18 10 8 12 4 12 -15 0z"/>
<path d="M3700 6874 c-8 -2 -37 -6 -63 -9 -30 -4 -50 -12 -54 -22 -8 -20 16
-34 39 -22 10 6 23 7 29 3 15 -9 159 -11 159 -2 0 11 31 -2 67 -28 17 -13 34
-24 38 -24 13 0 -17 40 -47 61 -29 21 -135 48 -168 43z"/>
<path d="M3140 6795 c0 -11 6 -15 18 -11 50 15 70 17 77 7 3 -6 10 -9 15 -6 9
5 74 -45 67 -52 -2 -1 -21 6 -42 17 -51 26 -97 25 -162 -2 -59 -24 -68 -38
-24 -38 16 0 40 -4 53 -9 35 -13 128 -2 128 16 0 10 6 13 16 9 9 -3 18 -6 20
-6 12 0 1 -19 -13 -23 -10 -3 -5 -5 12 -6 22 -1 33 5 40 22 9 19 5 27 -27 57
-34 34 -41 36 -107 38 -60 2 -71 0 -71 -13z m40 -65 c0 -22 -1 -23 -24 -14
-13 5 -14 9 -5 20 16 20 29 17 29 -6z m80 6 c0 -3 -4 -8 -10 -11 -5 -3 -10 -1
-10 4 0 6 5 11 10 11 6 0 10 -2 10 -4z"/>
<path d="M3085 6760 c-16 -11 -25 -20 -20 -20 6 0 24 9 40 20 17 11 26 20 20
20 -5 0 -23 -9 -40 -20z"/>
<path d="M3623 6748 c-27 -13 -42 -44 -16 -33 10 4 37 13 60 19 23 7 45 15 49
19 11 11 -68 7 -93 -5z"/>
<path d="M3730 6746 c0 -2 9 -6 20 -9 11 -3 18 -1 14 4 -5 9 -34 13 -34 5z"/>
<path d="M3650 6719 c-39 -12 -72 -37 -64 -50 13 -22 234 -47 261 -31 15 10
-94 80 -133 86 -16 3 -45 0 -64 -5z m10 -39 c0 -22 -16 -26 -40 -10 -13 9 -13
11 0 20 24 16 40 12 40 -10z m65 10 c3 -5 1 -10 -4 -10 -6 0 -11 5 -11 10 0 6
2 10 4 10 3 0 8 -4 11 -10z m54 -14 c10 -11 8 -16 -9 -21 -26 -8 -33 -3 -24
19 8 20 18 20 33 2z"/>
<path d="M3810 6705 c13 -14 26 -25 28 -25 3 0 -5 11 -18 25 -13 14 -26 25
-28 25 -3 0 5 -11 18 -25z"/>
<path d="M3237 6498 c-5 -16 3 -48 12 -48 4 0 6 14 3 30 -5 33 -8 37 -15 18z"/>
<path d="M3300 6440 c0 -5 4 -10 9 -10 5 0 18 -3 28 -7 16 -6 16 -5 4 10 -15
19 -41 23 -41 7z"/>
<path d="M3470 6420 c8 -5 24 -10 35 -10 17 0 17 2 5 10 -8 5 -24 10 -35 10
-17 0 -17 -2 -5 -10z"/>
<path d="M3146 6341 c-3 -5 1 -14 9 -21 13 -10 15 -9 15 9 0 21 -14 28 -24 12z"/>
<path d="M3235 6321 c-37 -9 -75 -29 -75 -40 0 -14 39 -43 52 -39 7 3 29 -3
48 -13 19 -9 48 -20 63 -23 24 -6 27 -5 15 7 -7 8 -19 12 -26 10 -12 -5 -52
23 -52 37 0 4 11 13 25 20 19 10 27 10 39 1 9 -7 17 -8 20 -2 3 5 16 6 29 3
21 -5 21 -5 5 11 -9 10 -23 16 -30 15 -7 -2 -12 3 -10 10 2 13 -52 15 -103 3z"/>
<path d="M3720 6281 c0 -11 4 -22 9 -25 4 -3 6 6 3 19 -5 30 -12 33 -12 6z"/>
<path d="M3521 6264 c13 -16 29 -19 29 -5 0 5 -9 11 -21 14 -16 4 -18 3 -8 -9z"/>
<path d="M3560 6250 c0 -5 4 -10 10 -10 5 0 7 -6 4 -14 -3 -8 -16 -13 -30 -11
-13 1 -24 -2 -24 -6 0 -12 37 -11 60 1 13 7 21 7 25 0 3 -5 1 -10 -6 -10 -7 0
-9 -3 -6 -6 4 -4 17 0 30 9 12 8 32 17 42 19 17 3 15 7 -12 21 -35 19 -93 23
-93 7z"/>
<path d="M3465 6210 c-4 -6 -15 -8 -26 -5 -10 4 -19 2 -19 -4 0 -5 20 -9 44
-8 24 1 44 2 43 2 -1 0 -9 6 -19 13 -11 9 -18 10 -23 2z"/>
<path d="M3116 5928 c17 -27 39 -48 51 -48 7 0 13 -7 13 -15 0 -8 3 -14 8 -13
7 2 51 -16 87 -35 25 -13 171 -11 243 4 28 6 52 11 52 12 0 1 -48 2 -108 2
-69 1 -114 5 -127 14 -19 12 -19 12 2 8 13 -3 26 -1 29 4 3 5 -10 10 -28 11
-89 4 -110 7 -121 16 -22 18 -108 52 -101 40z"/>
<path d="M3428 5863 c6 -2 18 -2 25 0 6 3 1 5 -13 5 -14 0 -19 -2 -12 -5z"/>
<path d="M3284 5706 c11 -9 24 -16 30 -16 12 0 7 5 -24 19 -24 11 -24 11 -6
-3z"/>
<path d="M3590 5687 c-14 -6 -52 -23 -85 -38 -33 -15 -63 -25 -67 -23 -9 6
-11 -10 -3 -18 3 -3 41 12 86 33 44 22 84 39 89 39 5 0 12 5 15 10 8 13 -3 12
-35 -3z"/>
<path d="M3372 5570 c-18 -21 -46 -61 -63 -89 -18 -28 -35 -51 -39 -51 -18 0
-18 -34 0 -60 11 -15 16 -31 12 -35 -4 -5 -2 -5 5 -1 22 12 43 -36 39 -89 l-4
-49 25 29 c44 53 65 75 74 75 15 0 11 -5 -54 -73 -62 -64 -64 -68 -84 -159
-36 -157 -48 -239 -48 -328 -1 -47 -8 -130 -17 -185 -9 -55 -19 -172 -22 -260
-3 -88 -12 -197 -20 -242 -8 -45 -20 -146 -26 -225 -6 -79 -12 -168 -15 -198
-15 -176 -16 -210 -6 -210 6 0 11 -9 11 -20 0 -11 -5 -20 -11 -20 -7 0 -9 -11
-5 -30 3 -19 2 -29 -4 -25 -9 5 -14 -26 -13 -72 1 -15 -31 -22 -82 -18 -22 1
-114 6 -205 11 -198 9 -177 8 -184 15 -4 3 -29 2 -57 -3 -38 -7 -55 -6 -67 4
-13 11 -15 11 -9 -4 4 -12 -2 -19 -25 -27 -39 -14 -38 -14 -38 5 0 14 -2 14
-16 -1 -12 -12 -19 -13 -30 -4 -25 21 -34 86 -32 226 1 76 4 125 6 110 5 -40
25 -28 29 19 22 253 24 244 -37 244 -31 0 -31 -1 -45 -165 -8 -101 -24 -172
-51 -237 -30 -73 -21 -100 52 -152 30 -22 52 -41 50 -43 -2 -2 -21 3 -41 11
-21 9 -39 16 -41 16 -2 0 -4 -22 -4 -50 0 -64 21 -83 113 -105 40 -9 80 -19
90 -22 13 -3 17 -15 17 -49 0 -25 -5 -44 -11 -44 -25 0 -175 43 -188 53 -12
10 -13 5 -8 -37 4 -27 14 -57 23 -67 23 -25 11 -52 -57 -125 -33 -35 -59 -71
-59 -79 0 -9 -11 -51 -25 -93 -34 -109 -55 -271 -59 -457 -3 -194 -27 -354
-72 -494 -37 -112 -137 -592 -179 -856 -14 -88 -27 -172 -30 -187 l-4 -28
1454 0 c903 0 1455 4 1455 9 0 6 -4 13 -10 16 -5 3 -10 22 -10 41 0 19 -5 34
-11 34 -5 0 -8 4 -4 9 3 5 -1 15 -8 23 -23 23 -32 49 -46 133 -13 74 -13 243
0 251 6 4 6 11 -1 19 -7 8 -7 21 -1 38 7 17 7 27 0 29 -6 2 -10 33 -11 68 0
39 -3 57 -7 45 -6 -14 -9 -6 -14 29 -4 27 -16 79 -27 116 -20 67 -41 173 -65
330 -7 47 -18 100 -23 118 -6 18 -14 65 -18 105 -3 40 -10 77 -14 82 -4 6 -16
60 -25 120 -9 61 -22 119 -28 130 -10 18 -20 68 -33 170 -3 22 -9 49 -15 60
-9 20 -14 56 -25 180 -4 39 -10 77 -15 86 -13 25 -13 483 0 487 6 2 11 8 11
13 0 5 -22 -2 -50 -16 -27 -14 -59 -25 -71 -25 -20 0 -21 -3 -14 -97 4 -54 11
-138 16 -188 5 -49 9 -130 9 -180 l0 -90 -39 75 c-22 41 -45 74 -51 72 -6 -1
-9 2 -5 8 3 5 -3 23 -15 39 -12 18 -16 32 -10 36 16 10 13 88 -3 82 -32 -12
-225 -57 -256 -59 -33 -3 -35 -1 -44 35 -5 21 -7 40 -4 43 2 3 54 16 113 29
60 14 129 32 153 41 l43 17 -7 51 c-3 28 -10 56 -16 62 -5 6 -6 14 -3 17 4 3
-10 4 -30 2 -20 -3 -51 -7 -68 -9 -18 -2 -41 -8 -52 -12 -16 -6 -17 -4 -12 17
6 23 6 23 -8 -2 -15 -27 -53 -38 -142 -45 -17 -1 -46 -5 -64 -9 l-33 -7 6 36
6 37 -97 -94 c-53 -52 -151 -142 -217 -200 -66 -58 -139 -125 -163 -149 l-43
-45 -137 -2 c-75 -1 -151 -4 -168 -7 -30 -6 -65 18 -50 34 4 4 12 -1 17 -11
25 -44 30 -13 23 146 -4 89 -8 163 -9 165 -2 2 -13 -1 -24 -8 -13 -7 -21 -7
-21 -1 0 20 40 33 57 20 9 -8 52 -14 116 -15 56 -2 116 -3 133 -3 29 -1 30 -3
26 -33 -5 -36 -29 -55 287 233 62 57 142 129 177 159 69 60 70 63 58 178 l-7
61 -81 -71 c-45 -39 -133 -119 -196 -178 -63 -59 -137 -126 -165 -149 -27 -24
-56 -50 -62 -59 -7 -9 -13 -12 -13 -8 0 26 47 78 187 207 280 259 314 289 324
289 6 0 9 23 8 53 -1 28 0 79 4 112 3 33 4 53 1 45 -3 -8 -31 -35 -62 -60 -63
-51 -252 -221 -355 -320 -73 -70 -87 -79 -87 -58 0 19 103 118 373 358 l118
104 -7 81 c-4 44 -8 82 -10 84 -2 2 -62 -50 -134 -115 -173 -157 -308 -274
-314 -274 -19 0 29 56 106 125 49 44 146 130 215 192 l126 112 -2 83 c-1 46
-4 85 -6 87 -5 4 -63 -46 -387 -338 -22 -19 -28 -21 -28 -9 0 9 93 101 206
204 l206 189 -7 80 c-4 44 -9 82 -11 84 -3 3 -42 -31 -87 -75 -103 -100 -273
-254 -281 -254 -31 0 51 90 184 202 36 29 91 81 123 114 l57 61 0 76 c0 43 -4
77 -9 77 -5 0 -44 -32 -87 -71 -44 -40 -99 -88 -124 -107 -25 -20 -64 -54 -87
-76 -31 -29 -43 -35 -43 -23 0 18 70 87 185 183 39 32 76 64 83 71 8 7 29 25
48 39 24 19 33 32 29 48 -2 11 -7 47 -10 78 l-6 57 -119 -99 c-64 -55 -134
-118 -154 -140 -42 -47 -49 -50 -35 -12 14 37 36 59 171 173 64 55 119 103
123 108 7 13 -34 120 -54 140 -10 10 -25 36 -34 58 l-16 41 50 42 c42 36 50
46 44 67 -4 16 -2 22 5 18 5 -3 10 -15 10 -26 0 -11 4 -18 9 -14 5 3 29 -17
52 -45 23 -27 46 -50 51 -50 18 0 6 59 -25 120 -44 88 -114 194 -139 209 -23
14 -37 6 -20 -11 7 -7 12 -23 12 -35 0 -13 7 -38 16 -54 32 -63 30 -66 -49
-61 -40 2 -85 3 -101 3 -28 0 -29 0 -23 47 5 38 14 54 47 83 26 24 36 39 27
42 -7 3 -27 -12 -45 -33z m-3 -161 c55 -11 88 -32 103 -65 9 -18 9 -27 0 -36
-9 -9 -12 -7 -12 9 0 39 -32 63 -102 79 -38 9 -68 20 -68 26 0 6 7 7 18 3 9
-4 37 -11 61 -16z m111 -269 c0 -5 -17 -22 -38 -37 -81 -60 -125 -99 -148
-133 -22 -31 -24 -32 -24 -12 0 29 96 132 154 166 47 27 56 30 56 16z m-705
-1995 c6 -2 -28 -3 -75 -4 -48 0 -77 4 -66 8 18 7 118 4 141 -4z m858 -114
c-175 -166 -355 -321 -364 -315 -7 4 -2 15 13 31 18 20 268 252 383 356 19 17
20 17 24 1 2 -11 -18 -38 -56 -73z m76 2 c0 -36 -3 -43 -9 -28 -12 28 -12 75
0 75 6 0 10 -21 9 -47z m-879 -29 c0 -29 -5 -44 -16 -48 -22 -9 -197 -7 -210
2 -6 4 -14 25 -17 47 l-6 40 124 1 125 1 0 -43z m-430 -94 c0 -5 -4 -10 -9
-10 -6 0 -13 5 -16 10 -3 6 1 10 9 10 9 0 16 -4 16 -10z m1635 0 c-3 -5 -12
-10 -18 -10 -7 0 -6 4 3 10 19 12 23 12 15 0z m-325 -12 c0 -17 -312 -318
-322 -312 -14 9 -8 20 39 70 65 68 266 253 276 254 4 0 7 -6 7 -12z m235 -158
c3 -6 -1 -7 -9 -4 -18 7 -21 14 -7 14 6 0 13 -4 16 -10z m315 -34 c0 -12 -5
-7 -19 24 -11 24 -11 24 3 6 9 -11 16 -24 16 -30z m14 -31 c3 -8 1 -15 -4 -15
-6 0 -10 7 -10 15 0 8 2 15 4 15 2 0 6 -7 10 -15z m-364 -80 c7 -9 8 -15 2
-15 -5 0 -12 7 -16 15 -3 8 -4 15 -2 15 2 0 9 -7 16 -15z m160 -45 c0 -5 -4
-10 -10 -10 -5 0 -10 5 -10 10 0 6 5 10 10 10 6 0 10 -4 10 -10z m243 -31 c-4
-15 -8 -17 -14 -8 -8 14 -3 29 11 29 4 0 6 -9 3 -21z m-13 -66 c-11 -17 -11
-17 -6 0 3 10 6 24 7 30 0 9 2 9 5 0 3 -7 0 -20 -6 -30z m-310 -3 c0 -5 -2
-10 -4 -10 -3 0 -8 5 -11 10 -3 6 -1 10 4 10 6 0 11 -4 11 -10z m339 -53 c0
-9 -2 -8 -6 1 -2 6 -10 9 -15 6 -7 -4 -8 -2 -4 5 9 13 26 5 25 -12z m-315 -3
c3 -8 2 -12 -4 -9 -6 3 -10 10 -10 16 0 14 7 11 14 -7z m313 -61 c-3 -10 -5
-2 -5 17 0 19 2 27 5 18 2 -10 2 -26 0 -35z m-270 -26 c-3 -7 1 -21 9 -32 8
-10 14 -24 14 -29 0 -6 -9 3 -20 19 -22 33 -26 55 -9 55 6 0 9 -6 6 -13z m280
-19 c-3 -8 -6 -5 -6 6 -1 11 2 17 5 13 3 -3 4 -12 1 -19z m-20 -14 c-3 -3 -12
-4 -19 -1 -8 3 -5 6 6 6 11 1 17 -2 13 -5z m-15 -54 c17 0 19 -3 10 -12 -14
-14 -52 16 -51 41 0 10 3 8 9 -6 6 -14 18 -23 32 -23z m-179 -42 c-2 -5 1 -8
7 -8 6 0 8 -5 5 -10 -9 -14 -55 35 -55 57 0 13 5 11 23 -8 13 -13 22 -27 20
-31z m227 3 c0 -5 3 -22 6 -39 6 -28 4 -30 -15 -25 -11 3 -22 12 -22 19 -2 23
-4 28 -12 42 -6 8 -1 12 17 12 14 0 26 -4 26 -9z m-210 -51 c0 -5 -2 -10 -4
-10 -3 0 -8 5 -11 10 -3 6 -1 10 4 10 6 0 11 -4 11 -10z m224 -53 c2 -12 7
-47 10 -77 l5 -55 -15 65 c-8 36 -19 73 -24 82 -7 13 -6 16 4 12 8 -3 17 -15
20 -27z m-204 -8 c0 -11 -4 -17 -10 -14 -5 3 -10 15 -10 26 0 11 5 17 10 14 6
-3 10 -15 10 -26z m173 -24 c-3 -8 0 -15 6 -15 18 0 12 -30 -6 -31 -17 -1 -17
-2 0 -6 22 -6 16 -29 -6 -27 -9 1 -14 -2 -11 -7 3 -5 14 -9 24 -9 12 0 17 -5
14 -14 -9 -23 -51 5 -62 41 -9 29 -8 33 9 33 10 0 18 3 18 8 -4 24 2 52 11 47
5 -3 7 -12 3 -20z m-46 -21 c-9 -9 -28 6 -21 18 4 6 10 6 17 -1 6 -6 8 -13 4
-17z m-73 -91 c14 -40 22 -73 18 -73 -4 0 -12 15 -18 33 -6 17 -21 57 -33 87
-15 36 -17 50 -8 40 8 -8 27 -48 41 -87z m113 -35 c-3 -7 -5 -2 -5 12 0 14 2
19 5 13 2 -7 2 -19 0 -25z m68 -13 c21 -64 105 -545 105 -602 0 -52 -14 -79
-24 -46 -3 10 -8 41 -11 68 -9 71 -33 208 -50 290 -8 39 -17 115 -21 170 -9
118 -7 107 -17 122 -4 7 -14 10 -22 6 -18 -6 -19 3 -2 22 18 21 28 14 42 -30z
m-1041 -10 c3 -8 1 -15 -4 -15 -6 0 -10 7 -10 15 0 8 2 15 4 15 2 0 6 -7 10
-15z m898 -50 c3 -13 2 -22 -2 -20 -11 7 -20 45 -10 45 4 0 10 -11 12 -25z
m38 -108 c0 -5 -4 -5 -10 -2 -5 3 -10 14 -10 23 0 15 2 15 10 2 5 -8 10 -19
10 -23z m10 -36 c0 -10 7 -24 15 -31 9 -7 13 -15 11 -18 -3 -2 1 -11 9 -19 17
-16 21 -68 5 -58 -5 3 -10 0 -10 -8 0 -9 13 -17 30 -19 17 -3 30 -1 30 4 0 4
5 8 10 8 6 0 10 -16 10 -35 0 -28 -4 -35 -20 -35 -19 0 -19 -1 -2 -18 14 -14
18 -29 15 -58 -6 -53 -6 -49 2 -134 4 -41 4 -72 0 -68 -4 4 -10 26 -12 50 -3
23 -12 47 -19 53 -8 5 -15 24 -16 40 -1 17 -8 36 -16 44 -9 10 -10 17 -3 24 6
6 11 18 11 27 0 12 -2 13 -9 1 -9 -14 -19 17 -27 79 -7 55 -25 156 -30 173 -3
9 -1 17 5 17 6 0 11 -8 11 -19z m85 -21 c-3 -5 -10 -10 -16 -10 -5 0 -9 5 -9
10 0 6 7 10 16 10 8 0 12 -4 9 -10z m-5 -97 c0 -22 -2 -25 -10 -13 -13 20 -13
40 0 40 6 0 10 -12 10 -27z m30 18 c0 -6 -4 -13 -10 -16 -5 -3 -10 1 -10 9 0
9 5 16 10 16 6 0 10 -4 10 -9z m-10 -446 c0 -8 -2 -15 -4 -15 -2 0 -6 7 -10
15 -3 8 -1 15 4 15 6 0 10 -7 10 -15z m20 -150 c0 -5 -5 -3 -10 5 -5 8 -10 20
-10 25 0 6 5 3 10 -5 5 -8 10 -19 10 -25z m0 -55 c0 -5 -4 -10 -10 -10 -5 0
-10 5 -10 10 0 6 5 10 10 10 6 0 10 -4 10 -10z m10 -50 c0 -5 -4 -10 -10 -10
-5 0 -10 5 -10 10 0 6 5 10 10 10 6 0 10 -4 10 -10z m35 -39 c3 -5 1 -12 -5
-16 -5 -3 -10 1 -10 9 0 18 6 21 15 7z m12 -103 c-3 -8 -6 -5 -6 6 -1 11 2 17
5 13 3 -3 4 -12 1 -19z"/>
<path d="M4358 1503 c7 -3 16 -2 19 1 4 3 -2 6 -13 5 -11 0 -14 -3 -6 -6z"/>
<path d="M4370 1441 c0 -6 4 -13 10 -16 6 -3 7 1 4 9 -7 18 -14 21 -14 7z"/>
<path d="M4365 1391 c-3 -5 0 -13 6 -17 7 -4 9 -3 5 4 -3 5 0 13 6 15 9 4 10
6 1 6 -6 1 -14 -3 -18 -8z"/>
<path d="M2906 5585 c4 -8 8 -15 10 -15 2 0 4 7 4 15 0 8 -4 15 -10 15 -5 0
-7 -7 -4 -15z"/>
<path d="M2908 5524 c6 -12 8 -24 5 -28 -3 -3 1 -6 10 -6 23 0 21 13 -4 36
-22 19 -22 19 -11 -2z"/>
<path d="M2959 5453 c5 -17 13 -39 18 -48 8 -14 11 -14 22 -1 10 12 7 20 -18
48 l-30 33 8 -32z"/>
<path d="M3440 5470 c-9 -6 -10 -10 -3 -10 6 0 15 5 18 10 8 12 4 12 -15 0z"/>
<path d="M3030 5378 c0 -10 9 -22 21 -28 29 -16 30 -9 3 20 -19 20 -24 21 -24
8z"/>
<path d="M2315 5175 c4 -11 13 -34 19 -51 6 -17 19 -41 29 -55 l18 -24 -6 45
c-4 32 -14 53 -37 75 -23 23 -29 25 -23 10z"/>
<path d="M2597 5128 c-16 -33 -26 -62 -24 -64 2 -3 16 23 31 57 15 33 26 62
24 64 -2 2 -16 -23 -31 -57z"/>
<path d="M2177 5057 c20 -41 36 -49 31 -16 -2 12 -13 29 -26 37 l-23 15 18
-36z"/>
<path d="M2527 5000 c-10 -16 -16 -30 -14 -30 2 0 13 14 25 30 13 17 19 30 14
30 -4 0 -16 -13 -25 -30z"/>
<path d="M2482 4947 c-28 -59 -21 -156 9 -101 11 21 11 28 2 31 -16 6 -17 55
-1 71 6 6 9 14 7 17 -3 3 -11 -5 -17 -18z"/>
<path d="M4485 4629 c-4 -6 -5 -12 -2 -15 2 -3 7 2 10 11 7 17 1 20 -8 4z"/>
<path d="M4484 4429 c-10 -12 -38 -35 -62 -51 -23 -16 -54 -46 -68 -66 -72
-107 -84 -127 -84 -139 0 -19 14 -16 25 6 51 97 67 121 79 121 15 0 107 94
125 128 15 28 10 28 -15 1z"/>
<path d="M3006 4345 c-3 -8 -1 -15 4 -15 6 0 10 7 10 15 0 8 -2 15 -4 15 -2 0
-6 -7 -10 -15z"/>
<path d="M2319 4336 c8 -10 33 -26 55 -37 l41 -20 -25 21 c-14 11 -38 28 -55
37 -28 15 -29 15 -16 -1z"/>
<path d="M1889 4326 c-5 -4 -157 -16 -210 -16 -28 0 -38 -5 -47 -25 -8 -18 -8
-25 -1 -25 7 0 9 -15 5 -42 -9 -66 -8 -77 11 -124 13 -32 25 -46 43 -50 14 -3
43 -12 65 -20 23 -8 46 -14 51 -14 7 0 13 29 16 68 9 125 71 208 176 237 l47
13 -76 1 c-42 1 -78 -1 -80 -3z m-124 -124 c-3 -3 -11 0 -18 7 -9 10 -8 11 6
5 10 -3 15 -9 12 -12z"/>
<path d="M2980 4294 c0 -22 -89 -211 -115 -244 -6 -8 -24 -40 -39 -70 -16 -30
-34 -62 -42 -71 -8 -8 -14 -21 -14 -27 0 -6 -24 -46 -52 -89 -29 -43 -60 -95
-70 -115 -9 -21 -21 -38 -26 -38 -5 0 -12 -12 -15 -27 -3 -16 -15 -38 -26 -50
-12 -12 -20 -26 -19 -31 2 -5 -11 -31 -28 -58 -60 -94 -75 -136 -23 -66 30 41
45 47 107 45 6 -1 12 6 12 13 0 24 52 94 69 94 13 0 13 2 2 9 -9 6 -10 11 -2
15 6 4 9 12 6 17 -4 5 -1 9 4 9 6 0 11 6 11 13 0 7 9 18 20 25 11 6 17 18 14
26 -3 8 4 24 15 35 12 12 21 26 21 33 0 20 24 78 32 78 4 0 8 9 8 20 0 11 4
20 10 20 5 0 14 18 20 40 6 22 24 69 40 106 17 36 30 72 30 80 0 8 5 14 11 14
5 0 7 5 4 10 -4 6 0 24 9 40 8 17 10 30 6 30 -5 0 2 21 15 46 26 49 32 84 15
84 -5 0 -10 -7 -10 -16z"/>
<path d="M3660 4120 c0 -30 -3 -66 -7 -80 -3 -14 -3 -22 2 -18 11 11 24 132
14 143 -5 5 -9 -14 -9 -45z"/>
<path d="M2086 3981 c-4 -6 -2 -11 3 -11 6 0 11 -8 12 -17 0 -10 3 -13 5 -6 8
18 -11 49 -20 34z"/>
<path d="M4366 3918 c-20 -28 -21 -44 -2 -29 13 11 29 51 21 51 -2 0 -11 -10
-19 -22z"/>
<path d="M4322 3860 c-18 -29 -15 -38 4 -12 9 13 14 25 12 27 -2 2 -9 -5 -16
-15z"/>
<path d="M2965 3588 c4 -35 18 -112 31 -173 13 -60 24 -114 24 -119 0 -5 2 -7
5 -4 7 7 -21 239 -36 306 -17 72 -31 66 -24 -10z"/>
<path d="M1920 3589 c0 -5 5 -7 10 -4 6 3 10 8 10 11 0 2 -4 4 -10 4 -5 0 -10
-5 -10 -11z"/>
<path d="M4320 3580 c0 -5 5 -10 10 -10 6 0 10 5 10 10 0 6 -4 10 -10 10 -5 0
-10 -4 -10 -10z"/>
<path d="M1890 3551 c0 -10 -6 -24 -14 -31 -8 -6 -12 -18 -9 -26 3 -7 -2 -16
-10 -20 -8 -3 -13 -13 -10 -24 3 -10 0 -21 -6 -24 -6 -4 -11 -17 -11 -30 0
-12 -5 -27 -12 -34 -9 -9 -9 -12 1 -12 11 0 11 -3 1 -15 -23 -28 91 -115 152
-115 24 0 148 55 148 65 0 3 -12 -1 -27 -8 -47 -24 -77 -31 -68 -16 6 9 4 11
-8 6 -21 -8 -65 27 -69 56 -2 17 -9 21 -28 19 -18 -1 -21 1 -11 7 7 5 11 13 7
19 -3 6 -2 13 4 17 5 3 10 12 10 18 0 9 -3 8 -8 -1 -6 -8 -12 -1 -20 24 -8 28
-8 35 2 31 9 -4 12 8 10 41 -2 28 0 42 5 33 7 -10 10 -11 16 -1 5 8 1 18 -10
27 -26 18 -35 16 -35 -6z"/>
<path d="M3550 3429 c-58 -54 -176 -161 -262 -236 l-158 -137 0 -50 c0 -28 -3
-67 -5 -86 -4 -22 0 -42 9 -53 12 -16 19 -12 87 59 41 42 119 115 174 162 55
48 141 128 191 177 l92 90 -5 88 c-3 48 -8 87 -12 87 -3 -1 -53 -46 -111 -101z"/>
<path d="M4105 3493 c23 -53 18 -69 -37 -118 -29 -26 -44 -44 -33 -40 11 4 32
10 47 14 31 7 67 50 70 83 1 12 -6 35 -16 51 -20 30 -43 37 -31 10z"/>
<path d="M4235 3427 c-32 -28 -36 -35 -22 -40 11 -4 17 -1 17 8 0 11 12 15 43
15 38 1 40 2 21 13 -12 7 -19 18 -17 25 7 18 0 15 -42 -21z"/>
<path d="M2395 3323 c7 -30 31 -60 40 -51 4 3 -1 22 -9 42 -18 43 -41 50 -31
9z"/>
<path d="M4115 3330 c-3 -6 1 -7 9 -4 18 7 21 14 7 14 -6 0 -13 -4 -16 -10z"/>
<path d="M1150 560 c0 -5 11 -10 25 -10 23 0 24 -3 28 -72 l3 -73 2 73 c2 70
3 72 27 72 14 0 25 5 25 10 0 6 -25 10 -55 10 -30 0 -55 -4 -55 -10z"/>
<path d="M1270 490 c0 -83 17 -112 22 -37 2 29 8 42 18 42 10 0 16 -13 18 -42
4 -56 22 -55 22 1 0 46 -19 72 -45 62 -11 -4 -15 2 -15 24 0 17 -4 30 -10 30
-6 0 -10 -33 -10 -80z"/>
<path d="M1370 560 c0 -5 5 -10 10 -10 6 0 10 5 10 10 0 6 -4 10 -10 10 -5 0
-10 -4 -10 -10z"/>
<path d="M1550 560 c0 -5 5 -10 10 -10 6 0 10 5 10 10 0 6 -4 10 -10 10 -5 0
-10 -4 -10 -10z"/>
<path d="M2090 560 c0 -5 5 -10 10 -10 6 0 10 5 10 10 0 6 -4 10 -10 10 -5 0
-10 -4 -10 -10z"/>
<path d="M2710 560 c0 -5 5 -10 10 -10 6 0 10 5 10 10 0 6 -4 10 -10 10 -5 0
-10 -4 -10 -10z"/>
<path d="M2850 490 c0 -83 17 -112 22 -37 2 29 8 42 18 42 10 0 16 -13 18 -42
4 -56 22 -55 22 1 0 46 -19 72 -45 62 -11 -4 -15 2 -15 24 0 17 -4 30 -10 30
-6 0 -10 -33 -10 -80z"/>
<path d="M3160 540 c0 -22 -4 -28 -15 -24 -24 9 -45 -15 -45 -51 0 -38 15 -53
53 -53 l27 1 0 78 c0 46 -4 79 -10 79 -5 0 -10 -13 -10 -30z m-5 -75 c0 -33
-28 -47 -39 -19 -10 25 3 56 22 52 11 -2 17 -13 17 -33z"/>
<path d="M3250 491 l0 -78 28 -1 c37 0 52 15 52 53 0 36 -21 60 -45 51 -11 -4
-15 2 -15 24 0 17 -4 30 -10 30 -6 0 -10 -33 -10 -79z m59 -10 c7 -13 6 -23
-3 -36 -16 -22 -36 -12 -36 19 0 39 22 49 39 17z"/>
<path d="M3580 560 c0 -5 5 -10 10 -10 6 0 10 5 10 10 0 6 -4 10 -10 10 -5 0
-10 -4 -10 -10z"/>
<path d="M3910 490 c0 -47 4 -80 10 -80 6 0 10 33 10 80 0 47 -4 80 -10 80 -6
0 -10 -33 -10 -80z"/>
<path d="M4370 490 c0 -47 4 -80 10 -80 6 0 10 12 10 28 l1 27 22 -27 c31 -39
43 -35 18 5 -19 30 -19 35 -5 55 8 12 11 22 5 22 -5 0 -17 -10 -25 -22 -15
-22 -16 -21 -16 25 0 26 -4 47 -10 47 -6 0 -10 -33 -10 -80z"/>
<path d="M2953 539 c-10 -23 -9 -46 3 -106 4 -22 34 -33 34 -13 0 6 -4 10 -10
10 -15 0 -12 67 3 73 9 4 9 8 1 14 -7 4 -14 17 -16 28 -4 18 -6 18 -15 -6z"/>
<path d="M4133 539 c-10 -23 -9 -46 3 -106 4 -22 34 -33 34 -13 0 6 -4 10 -10
10 -15 0 -12 67 3 73 9 4 9 8 1 14 -7 4 -14 17 -16 28 -4 18 -6 18 -15 -6z"/>
<path d="M1370 465 c0 -30 5 -55 10 -55 6 0 10 25 10 55 0 30 -4 55 -10 55 -5
0 -10 -25 -10 -55z"/>
<path d="M1417 513 c-17 -16 -5 -42 25 -52 25 -9 29 -14 20 -23 -10 -10 -17
-10 -32 0 -17 10 -20 10 -20 -2 0 -21 17 -29 46 -22 35 9 33 50 -3 71 l-28 16
28 -6 c29 -6 38 9 11 19 -20 8 -39 8 -47 -1z"/>
<path d="M1550 465 c0 -30 5 -55 10 -55 6 0 10 25 10 55 0 30 -4 55 -10 55 -5
0 -10 -25 -10 -55z"/>
<path d="M1590 463 c0 -63 17 -72 22 -10 4 60 31 58 38 -3 l6 -45 5 45 c7 54
-2 69 -42 68 -28 -1 -29 -2 -29 -55z"/>
<path d="M1670 511 c0 -6 7 -11 15 -11 11 0 15 -12 15 -45 0 -25 5 -45 11 -45
6 0 9 21 7 53 -3 45 -6 52 -25 55 -13 2 -23 -1 -23 -7z"/>
<path d="M1753 513 c-26 -10 -12 -22 20 -16 22 4 29 2 22 -5 -5 -5 -19 -12
-30 -14 -15 -2 -20 -11 -20 -33 0 -28 3 -30 38 -31 37 -1 37 -1 37 40 0 57
-23 77 -67 59z m47 -58 c0 -20 -28 -31 -42 -17 -10 10 8 23 40 31 1 1 2 -6 2
-14z"/>
<path d="M1849 504 c-28 -33 -3 -100 33 -90 12 3 18 0 15 -7 -2 -7 -16 -11
-31 -10 -33 2 -30 -20 3 -25 38 -6 51 15 51 83 0 62 0 62 -29 63 -16 0 -35 -6
-42 -14z m46 -39 c0 -33 -28 -47 -39 -19 -10 25 3 56 22 52 11 -2 17 -13 17
-33z"/>
<path d="M1952 508 c-7 -7 -12 -26 -12 -43 0 -50 42 -74 70 -40 17 20 5 32
-15 15 -13 -11 -19 -11 -33 3 -15 16 -14 17 21 17 29 0 37 4 37 18 0 22 -19
42 -40 42 -9 0 -21 -5 -28 -12z m48 -18 c0 -5 -12 -10 -26 -10 -14 0 -23 4
-19 10 3 6 15 10 26 10 10 0 19 -4 19 -10z"/>
<path d="M2090 465 c0 -30 5 -55 10 -55 6 0 10 25 10 55 0 30 -4 55 -10 55 -5
0 -10 -25 -10 -55z"/>
<path d="M2137 513 c-17 -16 -5 -42 25 -52 25 -9 29 -14 20 -23 -10 -10 -17
-10 -32 0 -17 10 -20 10 -20 -2 0 -21 17 -29 46 -22 35 9 33 50 -3 71 l-28 16
28 -6 c29 -6 38 9 11 19 -20 8 -39 8 -47 -1z"/>
<path d="M2282 508 c-7 -7 -12 -26 -12 -43 0 -50 42 -74 70 -40 16 19 5 34
-12 17 -18 -18 -36 -14 -43 9 -9 28 19 59 37 41 19 -19 30 -14 18 8 -12 22
-40 26 -58 8z"/>
<path d="M2371 506 c-17 -20 -10 -77 12 -90 25 -16 51 4 55 43 4 36 -12 61
-38 61 -10 0 -23 -6 -29 -14z m50 -22 c9 -11 10 -20 2 -32 -24 -38 -62 -15
-48 29 8 23 28 24 46 3z"/>
<path d="M2460 444 c0 -43 4 -74 10 -74 6 0 10 11 10 25 0 18 4 23 15 19 24
-9 45 15 45 51 0 38 -15 53 -52 53 l-28 0 0 -74z m64 33 c8 -12 7 -21 -6 -33
-20 -20 -38 -11 -38 20 0 39 23 46 44 13z"/>
<path d="M2571 463 c17 -51 18 -59 4 -69 -19 -14 -19 -24 -1 -24 14 0 35 44
54 113 6 20 6 37 2 37 -5 0 -15 -19 -21 -42 l-12 -43 -12 39 c-6 22 -17 42
-23 44 -7 2 -4 -18 9 -55z"/>
<path d="M2650 464 c0 -64 17 -73 22 -11 2 27 7 41 16 40 6 -2 12 3 12 11 0 8
-10 14 -25 14 -24 0 -25 -4 -25 -54z"/>
<path d="M2710 465 c0 -30 5 -55 10 -55 6 0 10 25 10 55 0 30 -4 55 -10 55 -5
0 -10 -25 -10 -55z"/>
<path d="M2759 504 c-28 -33 -3 -100 33 -90 12 3 18 0 15 -7 -2 -7 -16 -11
-31 -10 -33 2 -30 -20 3 -25 38 -6 51 15 51 83 0 62 0 62 -29 63 -16 0 -35 -6
-42 -14z m46 -39 c0 -33 -28 -47 -39 -19 -10 25 3 56 22 52 11 -2 17 -13 17
-33z"/>
<path d="M3012 508 c-7 -7 -12 -26 -12 -43 0 -50 42 -74 70 -40 17 20 5 32
-15 15 -13 -11 -19 -11 -33 3 -15 16 -14 17 21 17 29 0 37 4 37 18 0 22 -19
42 -40 42 -9 0 -21 -5 -28 -12z m48 -18 c0 -5 -12 -10 -26 -10 -14 0 -23 4
-19 10 3 6 15 10 26 10 10 0 19 -4 19 -10z"/>
<path d="M3361 463 c17 -51 18 -59 4 -69 -19 -14 -19 -24 -1 -24 14 0 35 44
54 113 6 20 6 37 2 37 -5 0 -15 -19 -21 -42 l-12 -43 -12 39 c-6 22 -17 42
-23 44 -7 2 -4 -18 9 -55z"/>
<path d="M3499 465 c9 -30 21 -55 26 -55 6 0 17 25 26 55 9 30 13 55 8 55 -4
0 -14 -19 -21 -41 l-12 -42 -14 42 c-20 61 -32 50 -13 -14z"/>
<path d="M3580 465 c0 -30 5 -55 10 -55 6 0 10 25 10 55 0 30 -4 55 -10 55 -5
0 -10 -25 -10 -55z"/>
<path d="M3627 513 c-17 -16 -5 -42 25 -52 25 -9 29 -14 20 -23 -10 -10 -17
-10 -32 0 -17 10 -20 10 -20 -2 0 -21 17 -29 46 -22 35 9 33 50 -3 71 l-28 16
28 -6 c29 -6 38 9 11 19 -20 8 -39 8 -47 -1z"/>
<path d="M3710 476 c0 -49 12 -64 53 -64 26 0 27 2 27 54 0 64 -17 73 -22 12
-2 -31 -8 -44 -20 -46 -15 -3 -18 4 -18 42 0 25 -4 46 -10 46 -5 0 -10 -20
-10 -44z"/>
<path d="M3823 513 c-26 -10 -12 -22 20 -16 22 4 29 2 22 -5 -5 -5 -19 -12
-30 -14 -15 -2 -20 -11 -20 -33 0 -28 3 -30 38 -31 37 -1 37 -1 37 40 0 57
-23 77 -67 59z m47 -58 c0 -20 -28 -31 -42 -17 -10 10 8 23 40 31 1 1 2 -6 2
-14z"/>
<path d="M3957 513 c-17 -16 -5 -42 25 -52 25 -9 29 -14 20 -23 -10 -10 -17
-10 -32 0 -17 10 -20 10 -20 -2 0 -21 17 -29 46 -22 35 9 33 50 -3 71 l-28 16
28 -6 c29 -6 38 9 11 19 -20 8 -39 8 -47 -1z"/>
<path d="M4047 513 c-17 -16 -5 -42 25 -52 25 -9 29 -14 20 -23 -10 -10 -17
-10 -32 0 -17 10 -20 10 -20 -2 0 -21 17 -29 46 -22 35 9 33 50 -3 71 l-28 16
28 -6 c29 -6 38 9 11 19 -20 8 -39 8 -47 -1z"/>
<path d="M4191 506 c-17 -20 -10 -77 12 -90 25 -16 51 4 55 43 4 36 -12 61
-38 61 -10 0 -23 -6 -29 -14z m53 -28 c8 -14 7 -22 -7 -35 -16 -16 -18 -16
-33 -1 -10 10 -14 23 -9 37 8 25 33 24 49 -1z"/>
<path d="M4292 508 c-7 -7 -12 -26 -12 -43 0 -50 42 -74 70 -40 16 19 5 34
-12 17 -18 -18 -36 -14 -43 9 -9 28 19 59 37 41 19 -19 30 -14 18 8 -12 22
-40 26 -58 8z"/>
<path d="M4522 508 c-7 -7 -12 -26 -12 -43 0 -50 42 -74 70 -40 18 21 6 29
-19 14 -23 -15 -30 -11 -36 19 -5 27 21 50 37 34 19 -19 30 -14 18 8 -12 22
-40 26 -58 8z"/>
<path d="M4611 506 c-17 -20 -10 -77 12 -90 25 -16 51 4 55 43 4 36 -12 61
-38 61 -10 0 -23 -6 -29 -14z m50 -22 c9 -11 10 -20 2 -32 -24 -38 -62 -15
-48 29 8 23 28 24 46 3z"/>
<path d="M4700 463 c0 -63 17 -72 22 -10 4 60 31 58 38 -3 l6 -45 5 45 c7 54
-2 69 -42 68 -28 -1 -29 -2 -29 -55z"/>
<path d="M4780 511 c0 -6 7 -11 15 -11 11 0 15 -12 15 -45 0 -25 5 -45 11 -45
6 0 9 21 7 53 -3 45 -6 52 -25 55 -13 2 -23 -1 -23 -7z"/>
<path d="M4470 420 c0 -5 5 -10 10 -10 6 0 10 5 10 10 0 6 -4 10 -10 10 -5 0
-10 -4 -10 -10z"/>
<path d="M92 293 c12 -3 18 -17 21 -46 l4 -42 1 43 c2 53 22 56 22 2 0 -22 5
-40 10 -40 6 0 10 9 10 20 0 27 18 25 23 -2 4 -20 4 -19 6 5 0 16 -5 30 -14
33 -8 4 -15 12 -15 20 0 10 -12 14 -42 13 -24 -1 -35 -3 -26 -6z"/>
<path d="M518 283 c-2 -10 -1 -31 3 -48 6 -28 7 -28 9 -5 1 14 3 35 4 48 3 26
-10 30 -16 5z"/>
<path d="M602 255 c0 -27 2 -43 5 -35 14 43 16 44 23 15 l8 -30 1 33 c1 22 -4
32 -13 32 -8 0 -17 8 -19 18 -3 9 -5 -5 -5 -33z"/>
<path d="M1241 257 c-1 -41 2 -48 16 -45 23 4 29 38 11 52 -8 6 -17 18 -21 26
-3 8 -6 -7 -6 -33z m29 -19 c0 -16 -3 -19 -11 -11 -6 6 -8 16 -5 22 11 17 16
13 16 -11z"/>
<path d="M2120 286 c0 -7 -9 -16 -21 -19 -29 -8 -22 -51 9 -55 20 -3 22 1 22
42 0 25 -2 46 -5 46 -3 0 -5 -6 -5 -14z m-10 -46 c0 -5 -4 -10 -10 -10 -5 0
-10 5 -10 10 0 6 5 10 10 10 6 0 10 -4 10 -10z"/>
<path d="M2403 255 c0 -27 2 -38 4 -22 2 15 2 37 0 50 -2 12 -4 0 -4 -28z"/>
<path d="M2802 255 c0 -27 2 -43 5 -35 14 43 16 44 23 15 l8 -30 1 33 c1 22
-4 32 -13 32 -8 0 -17 8 -19 18 -3 9 -5 -5 -5 -33z"/>
<path d="M3113 255 c0 -27 2 -38 4 -22 2 15 2 37 0 50 -2 12 -4 0 -4 -28z"/>
<path d="M3351 283 c-1 -16 -5 -21 -17 -16 -9 3 -20 0 -25 -8 -8 -12 -10 -12
-18 0 -12 19 -39 7 -44 -21 -3 -14 -5 -8 -6 17 -1 41 -17 39 -23 -3 -3 -22 -4
-22 -23 -7 -17 14 -17 16 -2 11 9 -3 17 -2 17 3 0 5 -18 8 -39 8 -36 0 -40 -2
-39 -27 1 -27 1 -27 77 -27 43 0 79 5 84 11 5 8 10 7 16 -2 9 -15 42 -13 54 3
4 6 10 5 16 -3 5 -9 8 -4 7 16 -1 22 -4 28 -13 20 -8 -6 -13 -1 -16 19 -3 21
-4 23 -6 6z m-182 -54 c-8 -5 -18 -9 -24 -9 -5 0 -3 5 5 10 10 6 11 10 3 10
-7 0 -13 5 -13 10 0 7 7 7 21 -1 17 -9 19 -13 8 -20z m116 11 c0 -7 -6 -15
-12 -17 -8 -3 -13 4 -13 17 0 13 5 20 13 18 6 -3 12 -11 12 -18z m61 9 c10
-17 -13 -36 -27 -22 -12 12 -4 33 11 33 5 0 12 -5 16 -11z"/>
<path d="M3642 258 c-2 -44 0 -48 21 -47 16 1 17 3 5 6 -12 3 -18 17 -21 46
l-4 42 -1 -47z"/>
<path d="M4001 259 c-7 -23 -10 -44 -7 -47 3 -3 6 2 6 11 0 22 26 22 39 0 6
-10 11 -14 11 -9 0 17 -23 86 -30 86 -4 0 -12 -18 -19 -41z m29 1 c0 -5 -4
-10 -10 -10 -5 0 -10 5 -10 10 0 6 5 10 10 10 6 0 10 -4 10 -10z"/>
<path d="M4527 273 c-3 -16 -9 -37 -12 -48 -6 -18 -5 -18 5 -2 6 9 18 17 25
17 8 0 15 -8 16 -17 0 -11 3 -13 6 -6 6 16 -16 83 -27 83 -4 0 -10 -12 -13
-27z m23 -8 c0 -8 -4 -15 -10 -15 -5 0 -7 7 -4 15 4 8 8 15 10 15 2 0 4 -7 4
-15z"/>
<path d="M4711 253 c2 -45 2 -46 8 -13 l6 35 14 -32 c13 -33 31 -44 31 -20 0
8 3 8 9 -2 14 -21 43 -5 39 21 -4 28 -35 36 -41 11 -3 -10 -6 -3 -7 17 l-3 35
-6 -35 -7 -35 -17 33 c-10 17 -20 32 -22 32 -3 0 -4 -21 -4 -47z m99 -13 c0
-11 -4 -20 -10 -20 -5 0 -10 9 -10 20 0 11 5 20 10 20 6 0 10 -9 10 -20z"/>
<path d="M5163 255 c0 -27 2 -38 4 -22 2 15 2 37 0 50 -2 12 -4 0 -4 -28z"/>
<path d="M1417 276 c-4 -9 -14 -12 -26 -9 -18 5 -21 1 -21 -26 0 -31 21 -43
35 -21 3 6 -1 7 -9 4 -11 -4 -16 0 -16 14 0 15 6 20 20 19 14 -1 20 -8 20 -24
0 -13 3 -23 8 -23 8 0 7 68 -1 76 -2 3 -7 -2 -10 -10z"/>
<path d="M1927 283 c-11 -10 -8 -61 3 -68 6 -4 10 10 10 34 0 42 -2 46 -13 34z"/>
<path d="M2777 283 c-11 -10 -8 -61 3 -68 6 -4 10 10 10 34 0 42 -2 46 -13 34z"/>
<path d="M5837 283 c-11 -10 -8 -61 3 -68 6 -4 10 10 10 34 0 42 -2 46 -13 34z"/>
<path d="M570 247 c0 -20 3 -37 8 -37 9 0 8 57 -1 67 -4 3 -7 -10 -7 -30z"/>
<path d="M1470 247 c0 -20 3 -37 8 -37 9 0 8 57 -1 67 -4 3 -7 -10 -7 -30z"/>
<path d="M4440 247 c0 -20 3 -37 8 -37 9 0 8 57 -1 67 -4 3 -7 -10 -7 -30z"/>
<path d="M5730 247 c0 -20 3 -37 8 -37 9 0 8 57 -1 67 -4 3 -7 -10 -7 -30z"/>
<path d="M204 255 c-4 -8 -4 -22 0 -30 6 -16 36 -21 36 -5 0 5 -7 7 -15 4 -8
-4 -15 -1 -15 5 0 6 9 11 20 11 13 0 18 5 14 15 -4 8 -13 15 -20 15 -8 0 -17
-7 -20 -15z"/>
<path d="M283 245 c1 -20 8 -31 20 -33 14 -3 17 3 16 30 -1 23 -3 26 -6 11 -2
-13 -8 -23 -13 -23 -5 0 -11 10 -13 23 -4 15 -5 12 -4 -8z"/>
<path d="M336 262 c-3 -5 -4 -17 -2 -28 2 -15 12 -19 44 -21 23 0 45 4 49 10
4 6 0 8 -10 4 -9 -3 -19 -2 -22 3 -4 6 3 10 15 10 25 0 22 23 -3 28 -10 2 -20
-5 -25 -17 -7 -20 -9 -20 -27 -5 -17 13 -17 15 -2 10 9 -3 17 -1 17 4 0 12
-27 13 -34 2z m81 -8 c-3 -3 -12 -4 -19 -1 -8 3 -5 6 6 6 11 1 17 -2 13 -5z"/>
<path d="M464 256 c-9 -24 4 -48 23 -44 12 2 18 12 18 28 0 29 -32 41 -41 16z
m31 -26 c-5 -8 -11 -8 -17 -2 -6 6 -7 16 -3 22 5 8 11 8 17 2 6 -6 7 -16 3
-22z"/>
<path d="M652 240 c0 -19 2 -27 5 -17 2 9 2 25 0 35 -3 9 -5 1 -5 -18z"/>
<path d="M676 262 c-10 -16 1 -47 17 -50 22 -4 22 17 0 35 -17 14 -17 14 0 9
9 -3 17 -1 17 4 0 12 -27 13 -34 2z"/>
<path d="M752 240 c0 -19 2 -27 5 -17 2 9 2 25 0 35 -3 9 -5 1 -5 -18z"/>
<path d="M771 238 c2 -31 2 -31 6 -5 2 15 8 27 13 27 5 0 11 -12 13 -27 l4
-28 2 28 c0 15 5 27 10 27 5 0 12 -12 14 -27 4 -26 4 -26 6 5 1 30 -1 32 -34
32 -33 0 -35 -2 -34 -32z"/>
<path d="M865 260 c17 -7 17 -9 3 -9 -29 -1 -23 -41 5 -41 20 0 23 4 19 30 -3
23 -9 30 -26 29 -20 0 -20 -1 -1 -9z m15 -30 c0 -5 -4 -10 -10 -10 -5 0 -10 5
-10 10 0 6 5 10 10 10 6 0 10 -4 10 -10z"/>
<path d="M905 259 c-11 -16 6 -51 21 -45 8 3 14 1 14 -4 0 -5 -6 -10 -12 -13
-8 -2 -7 -3 2 -3 10 1 16 14 18 36 2 30 0 36 -17 37 -11 1 -23 -3 -26 -8z m30
-29 c-5 -8 -11 -8 -17 -2 -6 6 -7 16 -3 22 5 8 11 8 17 2 6 -6 7 -16 3 -22z"/>
<path d="M960 241 c0 -31 21 -43 35 -21 3 6 -1 7 -9 4 -9 -3 -16 -1 -16 5 0 6
7 11 16 11 20 0 13 24 -9 28 -13 3 -17 -4 -17 -27z"/>
<path d="M1042 240 c0 -19 2 -27 5 -17 2 9 2 25 0 35 -3 9 -5 1 -5 -18z"/>
<path d="M1062 240 c1 -22 6 -30 20 -30 23 0 23 18 1 37 -17 14 -17 14 0 9 11
-3 16 -2 12 4 -14 22 -34 10 -33 -20z"/>
<path d="M1136 262 c-6 -10 -2 -39 7 -48 3 -4 14 -3 24 0 16 7 16 9 -7 28 -16
13 -19 18 -7 14 9 -3 17 -1 17 4 0 12 -27 13 -34 2z"/>
<path d="M1191 243 c-1 -26 3 -31 19 -30 16 1 20 8 19 32 -1 23 -3 25 -6 8 -2
-13 -8 -23 -13 -23 -5 0 -11 10 -13 23 -3 16 -5 14 -6 -10z"/>
<path d="M1288 230 c-2 -22 0 -40 4 -40 5 0 8 18 8 40 0 22 -2 40 -4 40 -2 0
-6 -18 -8 -40z"/>
<path d="M1314 256 c-13 -35 24 -64 42 -34 5 8 2 9 -9 5 -9 -3 -19 -2 -22 3
-4 6 3 10 15 10 13 0 20 5 18 13 -7 18 -37 21 -44 3z m33 -2 c-3 -3 -12 -4
-19 -1 -8 3 -5 6 6 6 11 1 17 -2 13 -5z"/>
<path d="M1495 260 c-11 -17 5 -51 23 -48 23 4 23 52 0 56 -9 2 -19 -2 -23 -8z
m35 -20 c0 -21 -15 -27 -25 -10 -7 12 2 30 16 30 5 0 9 -9 9 -20z"/>
<path d="M1580 230 l0 -41 21 20 c24 22 22 54 -4 59 -14 3 -17 -4 -17 -38z
m30 8 c0 -16 -3 -19 -11 -11 -6 6 -8 16 -5 22 11 17 16 13 16 -11z"/>
<path d="M1645 260 c17 -7 17 -9 3 -9 -29 -1 -23 -41 5 -41 20 0 23 4 19 30
-3 23 -9 30 -26 29 -20 0 -20 -1 -1 -9z m15 -30 c0 -5 -4 -10 -10 -10 -5 0
-10 5 -10 10 0 6 5 10 10 10 6 0 10 -4 10 -10z"/>
<path d="M1690 246 c6 -16 8 -37 5 -45 -3 -11 0 -9 10 3 8 11 15 27 16 35 1 9
5 5 9 -9 7 -23 8 -23 9 -3 2 33 21 39 22 6 1 -21 3 -23 6 -8 9 35 23 41 24 9
0 -16 3 -24 6 -17 3 10 9 10 23 0 16 -9 22 -9 32 2 11 12 10 13 -4 8 -10 -3
-20 -2 -23 3 -4 6 3 10 14 10 25 0 28 18 5 27 -11 4 -22 -1 -30 -12 -13 -17
-14 -17 -14 -2 0 23 -78 24 -86 2 -6 -14 -8 -13 -20 2 -12 16 -13 15 -4 -11z
m157 8 c-3 -3 -12 -4 -19 -1 -8 3 -5 6 6 6 11 1 17 -2 13 -5z"/>
<path d="M1871 238 c0 -18 3 -26 6 -18 14 43 16 44 23 15 l8 -30 1 33 c1 26
-3 32 -19 32 -16 0 -20 -6 -19 -32z"/>
<path d="M1994 262 c19 -8 19 -9 -3 -15 -28 -7 -23 -31 8 -35 19 -3 22 0 19
25 -2 19 -9 29 -23 30 -19 3 -19 3 -1 -5z m11 -32 c-3 -5 -11 -10 -16 -10 -6
0 -7 5 -4 10 3 6 11 10 16 10 6 0 7 -4 4 -10z"/>
<path d="M2031 235 c0 -16 3 -23 6 -15 14 43 16 44 23 15 l8 -30 1 32 c1 26
-3 31 -19 30 -15 -1 -20 -8 -19 -32z"/>
<path d="M2163 254 c-11 -29 5 -42 49 -41 39 2 43 4 43 27 0 23 -4 25 -43 27
-29 1 -45 -3 -49 -13z m47 -14 c0 -4 -7 -10 -15 -13 -16 -7 -29 8 -20 23 6 10
35 2 35 -10z m35 -10 c-5 -8 -11 -8 -17 -2 -6 6 -7 16 -3 22 5 8 11 8 17 2 6
-6 7 -16 3 -22z"/>
<path d="M2271 237 l1 -32 8 30 c7 29 9 28 23 -15 3 -8 6 -2 6 15 1 31 15 25
24 -10 3 -12 5 -8 4 10 -2 26 -6 30 -34 32 -31 3 -33 1 -32 -30z"/>
<path d="M2350 230 l0 -41 21 20 c24 22 22 54 -4 59 -14 3 -17 -4 -17 -38z
m30 8 c0 -16 -3 -19 -11 -11 -6 6 -8 16 -5 22 11 17 16 13 16 -11z"/>
<path d="M2422 240 c0 -19 2 -27 5 -17 2 9 2 25 0 35 -3 9 -5 1 -5 -18z"/>
<path d="M2458 264 c10 -5 9 -9 -4 -18 -21 -16 -11 -36 17 -36 29 0 23 54 -6
57 -11 2 -14 0 -7 -3z m17 -34 c-3 -5 -10 -10 -16 -10 -5 0 -9 5 -9 10 0 6 7
10 16 10 8 0 12 -4 9 -10z"/>
<path d="M2501 238 c0 -18 3 -26 6 -18 14 43 16 44 23 15 l8 -30 1 33 c1 26
-3 32 -19 32 -16 0 -20 -6 -19 -32z"/>
<path d="M2554 255 c-4 -8 -4 -22 0 -30 6 -16 36 -21 36 -5 0 5 -7 7 -15 4
-11 -4 -15 0 -15 16 0 16 4 20 15 16 8 -3 15 -1 15 4 0 16 -30 11 -36 -5z"/>
<path d="M2604 255 c-4 -8 -4 -22 0 -30 6 -16 36 -21 36 -5 0 5 -7 7 -15 4 -8
-4 -15 -1 -15 5 0 6 9 11 20 11 13 0 18 5 14 15 -4 8 -13 15 -20 15 -8 0 -17
-7 -20 -15z"/>
<path d="M2683 245 c2 -24 6 -30 27 -29 17 0 26 6 31 24 6 25 6 24 11 -5 l5
-30 2 33 c1 35 -24 47 -32 15 -4 -17 -5 -17 -6 0 0 9 -5 17 -11 17 -5 0 -10
-8 -11 -17 0 -16 -2 -15 -9 2 -8 17 -9 15 -7 -10z"/>
<path d="M2885 245 c11 -49 20 -49 29 0 5 21 4 24 -2 10 -9 -19 -9 -19 -21 0
-11 18 -12 17 -6 -10z"/>
<path d="M2932 240 c0 -19 2 -27 5 -17 2 9 2 25 0 35 -3 9 -5 1 -5 -18z"/>
<path d="M2952 240 c1 -22 6 -30 20 -30 23 0 23 18 1 37 -17 14 -17 14 0 9 11
-3 16 -2 12 4 -14 22 -34 10 -33 -20z"/>
<path d="M3001 243 c-1 -27 3 -33 19 -33 16 0 20 6 19 33 -1 23 -3 26 -6 10
-2 -13 -8 -23 -13 -23 -5 0 -11 10 -13 23 -3 16 -5 13 -6 -10z"/>
<path d="M3065 260 c17 -7 17 -9 3 -9 -29 -1 -23 -41 5 -41 20 0 23 4 19 30
-3 23 -9 30 -26 29 -20 0 -20 -1 -1 -9z m15 -30 c0 -5 -4 -10 -10 -10 -5 0
-10 5 -10 10 0 6 5 10 10 10 6 0 10 -4 10 -10z"/>
<path d="M3430 240 c0 -27 2 -28 43 -27 38 2 42 5 42 27 0 22 -4 25 -42 27
-41 1 -43 0 -43 -27z m35 0 c0 -7 -6 -15 -12 -17 -8 -3 -13 4 -13 17 0 13 5
20 13 18 6 -3 12 -11 12 -18z m45 0 c0 -11 -4 -20 -9 -20 -14 0 -23 18 -16 30
10 17 25 11 25 -10z"/>
<path d="M3531 238 c2 -31 2 -31 6 -5 2 15 8 27 13 27 5 0 11 -12 13 -27 l4
-28 2 28 c0 15 5 27 10 27 5 0 12 -12 14 -27 4 -26 4 -26 6 5 1 30 -1 32 -34
32 -33 0 -35 -2 -34 -32z"/>
<path d="M3692 240 c0 -19 2 -27 5 -17 2 9 2 25 0 35 -3 9 -5 1 -5 -18z"/>
<path d="M3713 254 c-11 -30 5 -41 61 -41 48 0 56 3 56 19 0 26 18 22 23 -4 4
-20 4 -19 6 5 1 32 -22 46 -50 29 -10 -7 -24 -12 -31 -11 -7 0 -4 4 7 8 14 6
8 8 -23 8 -28 0 -46 -5 -49 -13z m47 -14 c0 -4 -7 -10 -15 -13 -16 -7 -29 8
-20 23 6 10 35 2 35 -10z m50 -4 c0 -9 -30 -14 -35 -6 -4 6 3 10 14 10 12 0
21 -2 21 -4z"/>
<path d="M3872 240 c1 -22 6 -30 20 -30 23 0 23 18 1 37 -17 14 -17 14 0 9 11
-3 16 -2 12 4 -14 22 -34 10 -33 -20z"/>
<path d="M3920 241 c0 -31 21 -43 35 -21 3 6 -1 7 -9 4 -9 -3 -16 -1 -16 5 0
6 7 11 16 11 20 0 13 24 -9 28 -13 3 -17 -4 -17 -27z"/>
<path d="M4060 240 c0 -22 5 -30 18 -31 15 0 14 -2 -3 -10 l-20 -9 20 3 c15 2
21 11 23 40 3 32 0 37 -17 37 -17 0 -21 -6 -21 -30z m22 -12 c-9 -9 -12 -7
-12 12 0 19 3 21 12 12 9 -9 9 -15 0 -24z"/>
<path d="M4111 237 c1 -23 3 -26 6 -9 5 27 19 29 26 2 6 -22 32 -27 43 -8 5 8
2 9 -9 5 -9 -3 -19 -2 -22 3 -4 6 3 10 15 10 37 0 16 25 -23 27 -36 2 -37 1
-36 -30z m66 17 c-3 -3 -12 -4 -19 -1 -8 3 -5 6 6 6 11 1 17 -2 13 -5z"/>
<path d="M4200 241 c0 -31 21 -43 35 -21 3 6 -1 7 -9 4 -9 -3 -16 -1 -16 5 0
6 7 11 16 11 20 0 13 24 -9 28 -13 3 -17 -4 -17 -27z"/>
<path d="M4251 238 c2 -31 2 -31 6 -5 2 15 8 27 13 27 5 0 11 -12 13 -27 l4
-28 2 28 c0 15 5 27 10 27 5 0 12 -12 14 -27 4 -26 4 -26 6 5 1 30 -1 32 -34
32 -33 0 -35 -2 -34 -32z"/>
<path d="M4334 255 c-11 -27 4 -44 35 -43 23 1 31 6 31 20 0 26 18 23 23 -4 4
-20 4 -19 6 5 1 32 -22 46 -50 29 -10 -7 -24 -12 -31 -11 -7 0 -4 4 7 9 18 8
18 9 2 9 -10 1 -20 -6 -23 -14z m46 -19 c0 -9 -30 -14 -35 -6 -4 6 3 10 14 10
12 0 21 -2 21 -4z"/>
<path d="M4581 235 c0 -16 3 -23 6 -15 14 43 16 44 23 15 l8 -30 1 32 c1 26
-3 31 -19 30 -15 -1 -20 -8 -19 -32z"/>
<path d="M4631 265 c0 -5 4 -19 8 -30 5 -12 4 -26 -3 -34 -8 -11 -8 -13 3 -10
17 6 45 79 30 79 -5 0 -9 -8 -9 -17 0 -15 -2 -14 -15 3 -8 10 -14 15 -14 9z"/>
<path d="M4831 236 c0 -29 1 -29 9 -8 5 12 14 22 20 22 5 0 11 -10 11 -22 1
-17 2 -19 6 -5 2 9 12 17 21 17 12 0 9 4 -8 13 -43 23 -60 18 -59 -17z"/>
<path d="M4920 240 c0 -30 21 -42 35 -20 3 6 -1 7 -9 4 -12 -4 -16 0 -16 16 0
16 4 20 16 16 8 -3 12 -2 9 4 -14 22 -35 10 -35 -20z"/>
<path d="M4970 240 c0 -25 4 -31 18 -28 11 2 17 12 17 28 0 16 -6 26 -17 28
-14 3 -18 -3 -18 -28z m30 0 c0 -11 -4 -20 -10 -20 -5 0 -10 9 -10 20 0 11 5
20 10 20 6 0 10 -9 10 -20z"/>
<path d="M5021 238 c2 -31 2 -31 6 -5 2 15 8 27 13 27 5 0 11 -12 13 -27 l4
-28 2 28 c0 15 5 27 10 27 5 0 12 -12 14 -27 4 -26 4 -26 6 5 1 30 -1 32 -34
32 -33 0 -35 -2 -34 -32z"/>
<path d="M5101 228 c0 -32 2 -38 8 -23 5 11 6 25 4 31 -2 7 1 15 8 19 9 6 10
1 7 -19 -6 -28 6 -36 16 -11 8 23 -4 45 -25 45 -16 0 -19 -7 -18 -42z"/>
<path d="M5182 240 c0 -19 2 -27 5 -17 2 9 2 25 0 35 -3 9 -5 1 -5 -18z"/>
<path d="M5215 260 c17 -7 17 -9 3 -9 -26 -1 -24 -41 2 -41 16 0 20 7 20 30 0
25 -4 30 -22 29 -22 0 -22 -1 -3 -9z m15 -30 c0 -5 -4 -10 -10 -10 -5 0 -10 5
-10 10 0 6 5 10 10 10 6 0 10 -4 10 -10z"/>
<path d="M5251 235 c0 -28 1 -28 9 -7 5 12 14 22 20 22 5 0 10 -10 10 -22 1
-21 2 -21 16 5 15 29 39 32 39 6 0 -8 -8 -13 -17 -13 -10 1 -18 -2 -18 -6 0
-10 79 -9 86 1 3 5 -1 6 -9 3 -8 -3 -18 -1 -22 5 -3 7 2 11 14 11 12 0 21 5
21 10 0 15 -33 26 -38 12 -2 -8 -9 -8 -23 1 -16 10 -21 9 -28 -2 -6 -8 -11 -9
-15 -3 -3 6 -15 10 -26 9 -15 -1 -20 -8 -19 -32z"/>
<path d="M5454 262 c19 -8 19 -9 -3 -15 -28 -7 -23 -31 8 -35 19 -3 22 0 19
25 -2 19 -9 29 -23 30 -19 3 -19 3 -1 -5z m11 -32 c-3 -5 -11 -10 -16 -10 -6
0 -7 5 -4 10 3 6 11 10 16 10 6 0 7 -4 4 -10z"/>
<path d="M5491 238 c2 -30 2 -31 6 -5 2 15 8 27 13 27 5 0 11 -12 13 -27 l4
-28 2 28 c1 34 18 36 24 2 4 -23 4 -23 3 2 -1 24 -6 28 -33 31 -32 3 -33 2
-32 -30z"/>
<path d="M5574 255 c-4 -8 -4 -22 0 -30 6 -18 36 -20 36 -3 0 9 3 9 12 0 7 -7
20 -12 30 -12 14 0 18 8 17 33 0 29 -1 30 -9 10 -5 -13 -14 -23 -20 -23 -5 0
-10 10 -10 23 -1 21 -2 20 -16 -5 -17 -33 -34 -36 -34 -7 0 15 5 19 15 15 8
-3 15 -1 15 4 0 16 -30 11 -36 -5z"/>
<path d="M5681 238 c0 -18 3 -26 6 -18 14 43 16 44 23 15 l8 -30 1 33 c1 26
-3 32 -19 32 -16 0 -20 -6 -19 -32z"/>
<path d="M5762 240 c1 -17 6 -30 14 -30 20 0 27 19 10 26 -9 3 -16 10 -16 15
0 4 7 5 17 2 11 -4 14 -3 9 5 -14 24 -35 13 -34 -18z"/>
<path d="M5864 255 c-8 -21 2 -45 20 -45 17 0 28 24 20 45 -4 8 -13 15 -20 15
-8 0 -17 -7 -20 -15z m31 -15 c0 -7 -6 -15 -12 -17 -8 -3 -13 4 -13 17 0 13 5
20 13 18 6 -3 12 -11 12 -18z"/>
<path d="M5550 160 c0 -6 4 -9 9 -5 5 3 12 1 15 -4 4 -5 1 -13 -5 -17 -8 -5
-8 -9 1 -14 19 -12 4 -41 -17 -33 -14 5 -16 3 -6 -7 6 -7 19 -10 27 -7 23 9
17 91 -6 95 -10 2 -18 -2 -18 -8z"/>
<path d="M422 115 c-1 -39 1 -45 8 -27 5 12 14 22 19 22 5 0 12 -10 14 -22 4
-19 5 -18 6 5 1 21 -4 30 -18 34 -11 3 -22 12 -24 22 -3 9 -5 -6 -5 -34z"/>
<path d="M608 143 c-2 -10 -1 -31 1 -48 l5 -30 7 30 7 30 1 -30 1 -30 15 29
c19 36 19 36 -6 36 -15 0 -19 5 -15 15 3 8 1 15 -4 15 -5 0 -10 -8 -12 -17z"/>
<path d="M1192 115 c0 -27 2 -43 5 -35 14 43 16 44 23 15 l8 -30 1 33 c1 22
-4 32 -13 32 -8 0 -17 8 -19 18 -3 9 -5 -5 -5 -33z"/>
<path d="M1311 144 c-1 -15 -7 -20 -23 -20 -18 1 -23 -5 -23 -24 0 -20 5 -25
27 -26 18 -1 28 5 31 18 7 25 25 23 30 -4 4 -19 5 -18 6 5 1 21 -4 30 -18 34
-11 3 -22 12 -24 22 -4 12 -5 11 -6 -5z m-1 -44 c0 -4 -7 -10 -15 -13 -16 -7
-29 8 -20 23 6 10 35 2 35 -10z"/>
<path d="M2123 115 c0 -27 2 -38 4 -22 2 15 2 37 0 50 -2 12 -4 0 -4 -28z"/>
<path d="M2310 146 c0 -8 -7 -17 -16 -20 -21 -8 -14 -50 9 -54 14 -3 17 4 17
42 0 25 -2 46 -5 46 -3 0 -5 -6 -5 -14z m-8 -58 c-9 -9 -12 -7 -12 12 0 19 3
21 12 12 9 -9 9 -15 0 -24z"/>
<path d="M2673 115 c0 -27 2 -38 4 -22 2 15 2 37 0 50 -2 12 -4 0 -4 -28z"/>
<path d="M2778 141 c-2 -9 -1 -29 3 -46 l7 -30 2 30 2 30 8 -30 8 -30 2 30 c1
17 2 34 1 39 -1 5 3 12 10 16 6 4 0 8 -14 8 -15 0 -27 -7 -29 -17z"/>
<path d="M3123 115 c0 -27 2 -38 4 -22 2 15 2 37 0 50 -2 12 -4 0 -4 -28z"/>
<path d="M3143 115 c0 -27 2 -38 4 -22 2 15 2 37 0 50 -2 12 -4 0 -4 -28z"/>
<path d="M4398 143 c-2 -10 -1 -31 3 -48 l7 -30 2 30 c2 29 2 29 9 5 7 -24 41
-42 41 -21 0 6 -7 8 -15 5 -11 -4 -15 0 -15 16 0 16 4 20 15 16 8 -3 15 -1 15
5 0 6 -10 9 -22 7 -17 -2 -23 2 -22 15 1 9 -2 17 -6 17 -4 0 -10 -8 -12 -17z"/>
<path d="M4562 115 c0 -27 2 -43 5 -35 14 43 16 44 23 15 l8 -30 1 33 c1 22
-4 32 -13 32 -8 0 -17 8 -19 18 -3 9 -5 -5 -5 -33z"/>
<path d="M478 139 c-6 -17 3 -69 11 -69 7 0 6 69 -2 76 -3 3 -7 0 -9 -7z"/>
<path d="M1038 139 c-6 -17 3 -69 11 -69 7 0 6 69 -2 76 -3 3 -7 0 -9 -7z"/>
<path d="M3630 142 c0 -7 -7 -12 -15 -12 -10 0 -15 -10 -14 -32 1 -22 3 -26 6
-13 8 34 23 41 23 12 0 -15 3 -27 8 -27 9 0 7 68 -2 77 -3 4 -6 1 -6 -5z"/>
<path d="M3687 143 c-11 -10 -8 -61 3 -68 6 -4 10 10 10 34 0 42 -2 46 -13 34z"/>
<path d="M3948 140 c-2 -7 -2 -25 0 -40 3 -22 9 -27 33 -28 16 0 32 4 35 10 5
7 1 9 -9 5 -9 -3 -19 -2 -22 3 -4 6 3 10 15 10 13 0 20 5 18 13 -8 22 -42 13
-50 -13 -8 -25 -8 -25 -4 2 3 30 -9 59 -16 38z m59 -26 c-3 -3 -12 -4 -19 -1
-8 3 -5 6 6 6 11 1 17 -2 13 -5z"/>
<path d="M4537 143 c-11 -10 -8 -61 3 -68 6 -4 10 10 10 34 0 42 -2 46 -13 34z"/>
<path d="M5248 139 c-6 -17 3 -69 11 -69 7 0 6 69 -2 76 -3 3 -7 0 -9 -7z"/>
<path d="M5438 140 c-2 -7 -2 -26 0 -41 3 -23 8 -27 36 -26 26 2 31 6 31 27 0
18 -5 25 -20 25 -12 0 -22 -10 -27 -25 -8 -25 -8 -25 -4 2 3 30 -9 59 -16 38z
m57 -50 c-5 -8 -11 -8 -17 -2 -6 6 -7 16 -3 22 5 8 11 8 17 2 6 -6 7 -16 3
-22z"/>
<path d="M113 114 c-10 -28 5 -41 46 -41 23 0 41 3 41 8 0 5 -7 6 -15 3 -11
-4 -15 0 -15 16 0 16 4 20 15 16 8 -3 15 -2 15 3 0 14 -81 9 -87 -5z m47 -14
c0 -10 -31 -22 -38 -16 -2 3 -2 12 1 20 6 15 37 12 37 -4z"/>
<path d="M207 116 c-3 -8 -2 -27 3 -43 4 -15 9 -23 9 -17 1 7 10 14 21 17 13
3 20 14 21 29 l0 23 10 -24 c5 -14 7 -31 5 -38 -3 -7 -1 -13 4 -13 8 0 11 7
26 63 6 22 6 22 -10 2 -12 -16 -15 -17 -16 -4 0 21 -66 25 -73 5z m43 -18 c0
-16 -3 -19 -11 -11 -6 6 -8 16 -5 22 11 17 16 13 16 -11z"/>
<path d="M320 98 c0 -36 4 -35 14 5 4 16 2 27 -4 27 -5 0 -10 -14 -10 -32z"/>
<path d="M352 100 c0 -19 2 -27 5 -17 2 9 2 25 0 35 -3 9 -5 1 -5 -18z"/>
<path d="M377 123 c-13 -12 -7 -44 10 -50 15 -6 15 -7 -3 -14 -17 -7 -17 -8 4
-8 19 -1 22 4 22 39 0 38 -14 52 -33 33z m15 -35 c-9 -9 -12 -7 -12 12 0 19 3
21 12 12 9 -9 9 -15 0 -24z"/>
<path d="M532 100 c0 -19 2 -27 5 -17 2 9 2 25 0 35 -3 9 -5 1 -5 -18z"/>
<path d="M551 96 c0 -29 1 -29 9 -8 5 12 14 22 19 22 5 0 12 -10 14 -22 4 -16
5 -13 4 7 -2 24 -7 30 -24 31 -19 1 -23 -4 -22 -30z"/>
<path d="M668 105 c-3 -14 -1 -28 3 -31 5 -3 9 9 9 25 0 38 -6 40 -12 6z"/>
<path d="M691 98 c0 -18 3 -26 6 -18 14 43 16 44 23 15 l8 -30 1 33 c1 26 -3
32 -19 32 -16 0 -20 -6 -19 -32z"/>
<path d="M747 123 c-13 -12 -7 -44 10 -50 15 -6 15 -7 -3 -14 -17 -7 -17 -8 4
-8 19 -1 22 4 22 39 0 38 -14 52 -33 33z m15 -35 c-9 -9 -12 -7 -12 12 0 19 3
21 12 12 9 -9 9 -15 0 -24z"/>
<path d="M795 111 c-3 -12 -3 -25 0 -31 8 -13 32 -13 40 0 3 5 0 7 -8 4 -8 -3
-18 -1 -22 5 -3 7 3 11 15 11 13 0 20 5 18 13 -8 21 -36 19 -43 -2z"/>
<path d="M851 98 c2 -31 2 -31 6 -5 2 15 9 27 14 27 5 0 9 -12 10 -27 0 -16 3
-21 6 -13 14 43 16 44 23 15 l8 -30 1 33 c1 30 -1 32 -34 32 -33 0 -35 -2 -34
-32z"/>
<path d="M934 115 c-4 -8 -4 -22 0 -30 6 -16 36 -21 36 -5 0 5 -7 7 -15 4 -8
-4 -15 -1 -15 5 0 19 40 13 41 -6 0 -14 2 -13 9 5 5 12 14 22 19 22 5 0 12
-10 14 -22 4 -16 5 -13 4 7 -2 23 -7 30 -22 30 -11 1 -23 -4 -27 -10 -5 -6 -8
-6 -8 3 0 17 -29 15 -36 -3z"/>
<path d="M1116 105 c9 -38 13 -43 23 -26 7 11 10 11 14 0 7 -19 27 8 26 36 l0
20 -9 -20 c-7 -17 -9 -17 -9 -2 -1 22 -21 23 -21 0 0 -15 -2 -14 -15 3 -14 18
-15 17 -9 -11z"/>
<path d="M1242 100 c0 -19 2 -27 5 -17 2 9 2 25 0 35 -3 9 -5 1 -5 -18z"/>
<path d="M1392 100 c0 -19 2 -27 5 -17 2 9 2 25 0 35 -3 9 -5 1 -5 -18z"/>
<path d="M1416 122 c-10 -16 1 -47 17 -50 22 -4 22 17 0 35 -17 14 -17 14 0 9
9 -3 17 -1 17 4 0 12 -27 13 -34 2z"/>
<path d="M1497 100 c8 -42 18 -42 26 0 2 14 2 19 0 13 -3 -7 -8 -13 -13 -13
-5 0 -10 6 -13 13 -2 6 -2 1 0 -13z"/>
<path d="M1540 101 c0 -31 21 -43 35 -21 3 6 -1 7 -9 4 -9 -3 -16 -1 -16 5 0
6 7 11 16 11 20 0 13 24 -9 28 -13 3 -17 -4 -17 -27z"/>
<path d="M1591 98 c1 -24 3 -27 6 -10 2 12 10 22 18 22 17 0 25 -35 11 -50 -8
-10 -8 -11 3 -8 17 5 45 78 30 78 -5 0 -9 -8 -9 -17 -1 -17 -1 -17 -11 0 -5 9
-19 17 -29 17 -16 0 -20 -6 -19 -32z"/>
<path d="M1702 100 c1 -17 6 -30 14 -30 20 0 27 19 10 26 -9 3 -16 10 -16 15
0 4 7 5 17 2 11 -4 14 -3 9 5 -14 24 -35 13 -34 -18z"/>
<path d="M1750 101 c0 -31 21 -43 35 -21 3 6 -1 7 -9 4 -9 -3 -16 -1 -16 5 0
6 7 11 16 11 20 0 13 24 -9 28 -13 3 -17 -4 -17 -27z"/>
<path d="M1801 98 c1 -24 3 -27 6 -10 2 12 8 22 13 22 5 0 11 -10 13 -22 3
-17 5 -14 6 10 1 26 -3 32 -19 32 -16 0 -20 -6 -19 -32z"/>
<path d="M1861 103 c-1 -26 3 -31 19 -30 16 1 20 8 19 32 -1 23 -3 25 -6 8 -2
-13 -8 -23 -13 -23 -5 0 -11 10 -13 23 -3 16 -5 14 -6 -10z"/>
<path d="M1912 100 c1 -17 6 -30 14 -30 20 0 27 19 10 26 -9 3 -16 10 -16 15
0 4 7 5 17 2 11 -4 14 -3 9 5 -14 24 -35 13 -34 -18z"/>
<path d="M1986 115 c-9 -25 5 -45 30 -43 19 2 24 8 24 28 0 20 -5 26 -24 28
-13 1 -27 -5 -30 -13z m40 -6 c10 -17 -13 -36 -27 -22 -12 12 -4 33 11 33 5 0
12 -5 16 -11z"/>
<path d="M2054 110 c3 -14 6 -28 6 -32 0 -20 20 -5 27 20 l7 27 7 -30 7 -30 1
33 c1 22 -4 32 -14 32 -8 0 -15 -8 -15 -17 -1 -16 -2 -16 -17 2 -15 20 -15 19
-9 -5z"/>
<path d="M2188 123 c10 -4 9 -8 -4 -17 -23 -17 -9 -36 27 -36 22 0 29 5 29 20
0 27 17 25 23 -2 4 -16 5 -13 4 7 -2 28 -4 30 -47 31 -25 1 -39 0 -32 -3z m17
-33 c-3 -5 -10 -10 -16 -10 -5 0 -9 5 -9 10 0 6 7 10 16 10 8 0 12 -4 9 -10z"/>
<path d="M2364 115 c-4 -8 -4 -22 0 -30 6 -16 36 -21 36 -5 0 5 -7 7 -15 4
-11 -4 -15 0 -15 16 0 16 4 20 15 16 8 -3 15 -1 15 4 0 16 -30 11 -36 -5z"/>
<path d="M2411 98 c1 -24 3 -27 6 -10 2 12 8 22 13 22 5 0 11 -10 13 -22 3
-17 5 -14 6 10 1 26 -3 32 -19 32 -16 0 -20 -6 -19 -32z"/>
<path d="M2461 98 c1 -22 3 -26 6 -13 9 35 23 41 24 10 1 -21 3 -24 6 -10 8
33 23 42 23 14 0 -16 6 -26 15 -26 10 0 15 10 14 31 -1 30 -1 30 -9 6 -8 -24
-8 -24 -9 -2 -1 18 -7 22 -36 22 -33 0 -35 -2 -34 -32z"/>
<path d="M2560 101 c0 -17 5 -31 10 -31 6 0 10 9 10 19 0 30 18 35 23 6 4 -23
4 -23 3 2 -1 21 -7 29 -23 31 -20 3 -23 -1 -23 -27z"/>
<path d="M2635 120 c17 -7 17 -9 3 -9 -26 -1 -24 -41 2 -41 16 0 20 7 20 30 0
25 -4 30 -22 29 -22 0 -22 -1 -3 -9z m15 -30 c0 -5 -4 -10 -10 -10 -5 0 -10 5
-10 10 0 6 5 10 10 10 6 0 10 -4 10 -10z"/>
<path d="M2724 115 c-8 -21 2 -45 20 -45 7 0 16 7 20 15 8 21 -3 45 -20 45 -8
0 -17 -7 -20 -15z m31 -15 c0 -7 -6 -15 -12 -17 -8 -3 -13 4 -13 17 0 13 5 20
13 18 6 -3 12 -11 12 -18z"/>
<path d="M2830 101 c0 -31 21 -43 35 -21 3 6 -1 7 -9 4 -9 -3 -16 -1 -16 5 0
6 7 11 16 11 20 0 13 24 -9 28 -13 3 -17 -4 -17 -27z"/>
<path d="M2881 95 c0 -16 3 -23 6 -15 14 43 16 44 23 15 l8 -30 1 32 c1 26 -3
31 -19 30 -15 -1 -20 -8 -19 -32z"/>
<path d="M2936 114 c-11 -27 4 -41 45 -41 22 0 42 4 46 10 4 6 0 8 -10 4 -9
-3 -19 -2 -22 3 -4 6 3 10 15 10 13 0 20 5 18 13 -6 17 -85 19 -92 1z m40 -5
c10 -17 -13 -36 -27 -22 -12 12 -4 33 11 33 5 0 12 -5 16 -11z m41 5 c-3 -3
-12 -4 -19 -1 -8 3 -5 6 6 6 11 1 17 -2 13 -5z"/>
<path d="M3078 124 c10 -5 9 -9 -4 -18 -21 -16 -11 -36 17 -36 29 0 23 54 -6
57 -11 2 -14 0 -7 -3z m17 -34 c-3 -5 -10 -10 -16 -10 -5 0 -9 5 -9 10 0 6 7
10 16 10 8 0 12 -4 9 -10z"/>
<path d="M3167 123 c-4 -3 -7 -15 -7 -25 0 -27 28 -34 45 -12 13 18 14 18 15
2 0 -20 20 -25 20 -5 0 8 3 7 10 -3 11 -18 17 -13 25 25 4 20 4 26 -3 16 -7
-10 -11 -10 -17 -1 -6 9 -10 9 -16 -1 -8 -12 -10 -12 -18 0 -7 11 -9 11 -14 0
-4 -10 -6 -10 -6 -1 -1 13 -23 17 -34 5z m28 -23 c0 -7 -6 -15 -12 -17 -8 -3
-13 4 -13 17 0 13 5 20 13 18 6 -3 12 -11 12 -18z"/>
<path d="M3290 101 c0 -21 5 -31 15 -31 8 0 15 9 15 20 0 27 17 25 23 -2 4
-16 5 -13 4 7 -2 25 -7 31 -29 33 -25 3 -28 0 -28 -27z"/>
<path d="M3367 123 c-13 -12 -7 -44 10 -50 15 -6 15 -7 -3 -14 -17 -7 -17 -8
4 -8 19 -1 22 4 22 39 0 38 -14 52 -33 33z m15 -35 c-9 -9 -12 -7 -12 12 0 19
3 21 12 12 9 -9 9 -15 0 -24z"/>
<path d="M3444 115 c-4 -8 -4 -22 0 -30 6 -16 36 -21 36 -5 0 5 -7 7 -15 4
-11 -4 -15 0 -15 16 0 16 4 20 15 16 8 -3 15 -1 15 4 0 16 -30 11 -36 -5z"/>
<path d="M3490 100 c0 -25 4 -31 18 -28 11 2 17 12 17 28 0 16 -6 26 -17 28
-14 3 -18 -3 -18 -28z m30 0 c0 -11 -4 -20 -10 -20 -5 0 -10 9 -10 20 0 11 5
20 10 20 6 0 10 -9 10 -20z"/>
<path d="M3543 105 c2 -23 7 -31 25 -33 19 -3 22 1 21 30 0 30 -1 31 -9 11 -5
-13 -14 -23 -19 -23 -5 0 -12 10 -14 23 -4 15 -5 12 -4 -8z"/>
<path d="M3714 115 c-8 -21 2 -45 20 -45 17 0 28 24 20 45 -4 8 -13 15 -20 15
-8 0 -17 -7 -20 -15z m31 -15 c0 -7 -6 -15 -12 -17 -8 -3 -13 4 -13 17 0 13 5
20 13 18 6 -3 12 -11 12 -18z"/>
<path d="M3792 100 c1 -22 6 -30 20 -30 23 0 23 18 1 37 -17 14 -17 14 0 9 11
-3 16 -2 12 4 -14 22 -34 10 -33 -20z"/>
<path d="M3840 101 c0 -31 21 -43 35 -21 3 6 -1 7 -9 4 -9 -3 -16 -1 -16 5 0
6 7 11 16 11 20 0 13 24 -9 28 -13 3 -17 -4 -17 -27z"/>
<path d="M3891 96 c0 -29 1 -29 9 -8 5 12 14 22 19 22 5 0 12 -10 14 -22 4
-16 5 -13 4 7 -2 24 -7 30 -24 31 -19 1 -23 -4 -22 -30z"/>
<path d="M4031 98 c0 -18 3 -26 6 -18 14 43 16 44 23 15 l8 -30 1 33 c1 26 -3
32 -19 32 -16 0 -20 -6 -19 -32z"/>
<path d="M4084 115 c-4 -8 -4 -22 0 -30 6 -16 36 -21 36 -5 0 5 -7 7 -15 4
-11 -4 -15 0 -15 16 0 16 4 20 15 16 8 -3 15 -1 15 4 0 16 -30 11 -36 -5z"/>
<path d="M4134 115 c-4 -8 -4 -22 0 -30 6 -16 36 -21 36 -5 0 5 -7 7 -15 4 -8
-4 -15 -1 -15 5 0 6 9 11 20 11 13 0 18 5 14 15 -4 8 -13 15 -20 15 -8 0 -17
-7 -20 -15z"/>
<path d="M4213 92 c2 -50 11 -53 26 -11 14 39 14 59 1 39 -9 -13 -11 -13 -19
-1 -6 10 -9 1 -8 -27z"/>
<path d="M4260 100 c0 -25 4 -31 18 -28 11 2 17 12 17 28 0 16 -6 26 -17 28
-14 3 -18 -3 -18 -28z m30 0 c0 -11 -4 -20 -10 -20 -5 0 -10 9 -10 20 0 11 5
20 10 20 6 0 10 -9 10 -20z"/>
<path d="M4313 105 c2 -23 7 -31 25 -33 19 -3 22 1 21 30 0 30 -1 31 -9 11 -5
-13 -14 -23 -19 -23 -5 0 -12 10 -14 23 -4 15 -5 12 -4 -8z"/>
<path d="M4466 115 c-3 -8 -3 -22 1 -30 4 -12 9 -10 19 11 17 33 17 34 0 34
-8 0 -16 -7 -20 -15z"/>
<path d="M4614 116 c-13 -35 24 -64 42 -34 5 8 2 9 -9 5 -9 -3 -19 -2 -22 3
-4 6 3 10 15 10 13 0 20 5 18 13 -7 18 -37 21 -44 3z m33 -2 c-3 -3 -12 -4
-19 -1 -8 3 -5 6 6 6 11 1 17 -2 13 -5z"/>
<path d="M4701 103 c-1 -23 4 -33 14 -33 10 0 15 10 15 27 0 29 15 22 23 -12
3 -15 5 -13 6 8 1 36 16 27 25 -15 4 -18 10 -28 14 -22 4 6 15 13 25 17 12 5
17 15 15 29 -3 21 -9 23 -60 24 -56 2 -58 1 -59 -25 -1 -26 -1 -26 -9 4 l-8
30 -1 -32z m129 -5 c0 -16 -3 -19 -11 -11 -6 6 -8 16 -5 22 11 17 16 13 16
-11z"/>
<path d="M4851 98 c1 -24 3 -27 6 -10 2 12 8 22 13 22 5 0 11 -10 13 -22 3
-17 5 -14 6 10 1 26 -3 32 -19 32 -16 0 -20 -6 -19 -32z"/>
<path d="M4906 122 c-10 -16 1 -47 17 -50 22 -4 22 17 0 35 -17 14 -17 14 0 9
9 -3 17 -1 17 4 0 12 -27 13 -34 2z"/>
<path d="M4953 114 c-10 -26 5 -43 36 -42 23 1 31 6 31 20 0 26 18 23 23 -4 4
-16 5 -13 4 7 -2 28 -5 30 -45 32 -30 1 -45 -3 -49 -13z m32 -24 c-5 -8 -11
-8 -17 -2 -6 6 -7 16 -3 22 5 8 11 8 17 2 6 -6 7 -16 3 -22z"/>
<path d="M5061 98 c2 -31 2 -31 6 -5 2 15 8 27 13 27 5 0 11 -12 13 -27 l4
-28 2 28 c0 15 5 27 10 27 5 0 12 -12 14 -27 4 -26 4 -26 6 5 1 30 -1 32 -34
32 -33 0 -35 -2 -34 -32z"/>
<path d="M5144 115 c-11 -27 4 -44 35 -43 23 1 31 6 31 20 0 26 18 23 23 -4 4
-16 5 -13 4 7 -2 33 -33 48 -48 23 -6 -10 -9 -10 -9 0 0 17 -29 15 -36 -3z
m36 -25 c-19 -13 -30 -13 -30 0 0 6 10 10 23 10 18 0 19 -2 7 -10z"/>
<path d="M5303 105 c2 -21 8 -31 22 -34 11 -2 23 -8 27 -15 6 -8 8 -8 8 0 0 7
9 14 21 17 15 4 20 12 17 29 -2 18 -10 24 -34 26 -25 2 -32 -1 -30 -14 2 -26
-22 -28 -27 -2 -4 16 -5 14 -4 -7z m87 -7 c0 -16 -3 -19 -11 -11 -6 6 -8 16
-5 22 11 17 16 13 16 -11z"/>
<path d="M5630 106 c6 -16 8 -37 5 -45 -3 -11 0 -9 10 3 8 11 15 27 16 35 0
10 4 7 9 -6 10 -25 34 -30 46 -11 5 8 2 9 -9 5 -9 -3 -19 -2 -22 3 -4 6 3 10
15 10 32 0 18 25 -14 26 -15 1 -30 -5 -33 -13 -4 -11 -8 -10 -19 4 -12 16 -13
15 -4 -11z m77 8 c-3 -3 -12 -4 -19 -1 -8 3 -5 6 6 6 11 1 17 -2 13 -5z"/>
<path d="M5745 120 c17 -7 17 -9 3 -9 -26 -1 -24 -41 2 -41 16 0 20 7 20 30 0
25 -4 30 -22 29 -22 0 -22 -1 -3 -9z m15 -30 c0 -5 -4 -10 -10 -10 -5 0 -10 5
-10 10 0 6 5 10 10 10 6 0 10 -4 10 -10z"/>
<path d="M5781 97 c1 -25 3 -27 6 -9 5 24 28 25 28 1 0 -7 8 -15 18 -17 9 -2
17 2 17 9 0 6 -8 18 -17 26 -17 14 -17 14 0 9 9 -3 17 -1 17 3 0 5 -16 9 -35
9 -33 0 -35 -2 -34 -31z"/>
<path d="M1071 64 c0 -11 3 -14 6 -6 3 7 2 16 -1 19 -3 4 -6 -2 -5 -13z"/>
</g>
</svg>
